<?xml version="1.0" encoding="utf-8"?>
<!-- Generator: Adobe Illustrator 16.0.0, SVG Export Plug-In . SVG Version: 6.00 Build 0)  -->
<!DOCTYPE svg PUBLIC "-//W3C//DTD SVG 1.1//EN" "http://www.w3.org/Graphics/SVG/1.1/DTD/svg11.dtd" [
	<!ENTITY ns_extend "http://ns.adobe.com/Extensibility/1.0/">
	<!ENTITY ns_ai "http://ns.adobe.com/AdobeIllustrator/10.0/">
	<!ENTITY ns_graphs "http://ns.adobe.com/Graphs/1.0/">
	<!ENTITY ns_vars "http://ns.adobe.com/Variables/1.0/">
	<!ENTITY ns_imrep "http://ns.adobe.com/ImageReplacement/1.0/">
	<!ENTITY ns_sfw "http://ns.adobe.com/SaveForWeb/1.0/">
	<!ENTITY ns_custom "http://ns.adobe.com/GenericCustomNamespace/1.0/">
	<!ENTITY ns_adobe_xpath "http://ns.adobe.com/XPath/1.0/">
]>
<svg version="1.1" xmlns:x="&ns_extend;" xmlns:i="&ns_ai;" xmlns:graph="&ns_graphs;"
	 xmlns="http://www.w3.org/2000/svg" xmlns:xlink="http://www.w3.org/1999/xlink" x="0px" y="0px" width="2741.978px"
	 height="1596.159px" viewBox="0 0 2741.978 1596.159" enable-background="new 0 0 2741.978 1596.159" xml:space="preserve">
<metadata><?xpacket begin="﻿" id="W5M0MpCehiHzreSzNTczkc9d"?>
<x:xmpmeta xmlns:x="adobe:ns:meta/" x:xmptk="Adobe XMP Core 5.3-c011 66.145661, 2012/02/06-14:56:27        ">
   <rdf:RDF xmlns:rdf="http://www.w3.org/1999/02/22-rdf-syntax-ns#">
      <rdf:Description rdf:about=""
            xmlns:dc="http://purl.org/dc/elements/1.1/">
         <dc:format>image/svg+xml</dc:format>
         <dc:title>
            <rdf:Alt>
               <rdf:li xml:lang="x-default">Web</rdf:li>
            </rdf:Alt>
         </dc:title>
      </rdf:Description>
      <rdf:Description rdf:about=""
            xmlns:xmp="http://ns.adobe.com/xap/1.0/"
            xmlns:xmpGImg="http://ns.adobe.com/xap/1.0/g/img/">
         <xmp:CreatorTool>Adobe Illustrator CS6 (Windows)</xmp:CreatorTool>
         <xmp:CreateDate>2021-12-19T21:23:14-05:00</xmp:CreateDate>
         <xmp:ModifyDate>2021-12-19T21:23:14-05:00</xmp:ModifyDate>
         <xmp:MetadataDate>2021-12-19T21:23:14-05:00</xmp:MetadataDate>
         <xmp:Thumbnails>
            <rdf:Alt>
               <rdf:li rdf:parseType="Resource">
                  <xmpGImg:width>256</xmpGImg:width>
                  <xmpGImg:height>144</xmpGImg:height>
                  <xmpGImg:format>JPEG</xmpGImg:format>
                  <xmpGImg:image>/9j/4AAQSkZJRgABAgEASABIAAD/7QAsUGhvdG9zaG9wIDMuMAA4QklNA+0AAAAAABAASAAAAAEA&#xA;AQBIAAAAAQAB/+4ADkFkb2JlAGTAAAAAAf/bAIQABgQEBAUEBgUFBgkGBQYJCwgGBggLDAoKCwoK&#xA;DBAMDAwMDAwQDA4PEA8ODBMTFBQTExwbGxscHx8fHx8fHx8fHwEHBwcNDA0YEBAYGhURFRofHx8f&#xA;Hx8fHx8fHx8fHx8fHx8fHx8fHx8fHx8fHx8fHx8fHx8fHx8fHx8fHx8fHx8f/8AAEQgAkAEAAwER&#xA;AAIRAQMRAf/EAaIAAAAHAQEBAQEAAAAAAAAAAAQFAwIGAQAHCAkKCwEAAgIDAQEBAQEAAAAAAAAA&#xA;AQACAwQFBgcICQoLEAACAQMDAgQCBgcDBAIGAnMBAgMRBAAFIRIxQVEGE2EicYEUMpGhBxWxQiPB&#xA;UtHhMxZi8CRygvElQzRTkqKyY3PCNUQnk6OzNhdUZHTD0uIIJoMJChgZhJRFRqS0VtNVKBry4/PE&#xA;1OT0ZXWFlaW1xdXl9WZ2hpamtsbW5vY3R1dnd4eXp7fH1+f3OEhYaHiImKi4yNjo+Ck5SVlpeYmZ&#xA;qbnJ2en5KjpKWmp6ipqqusra6voRAAICAQIDBQUEBQYECAMDbQEAAhEDBCESMUEFURNhIgZxgZEy&#xA;obHwFMHR4SNCFVJicvEzJDRDghaSUyWiY7LCB3PSNeJEgxdUkwgJChgZJjZFGidkdFU38qOzwygp&#xA;0+PzhJSktMTU5PRldYWVpbXF1eX1RlZmdoaWprbG1ub2R1dnd4eXp7fH1+f3OEhYaHiImKi4yNjo&#xA;+DlJWWl5iZmpucnZ6fkqOkpaanqKmqq6ytrq+v/aAAwDAQACEQMRAD8A9U4qhr7UrOyQGd6M32Ix&#xA;u7U/lUfr6eOThAyOzGUgObH73WL28qqk21uf91oaSEf5bjp8l+8jM3HpgOe5cWecnklNzrtp5dtm&#xA;vJLtLG3U/Ej/AN25Pb0x1Y/5PxZedP4hoDdp8fwxZOzKfKnmGDzFoFrrMEZjhuvU4ITU0jkaOvQd&#xA;eFc12fCcczE8w5uDKMkBIcim2UtrsVdirsVU7i5t7aIyzyLHGP2mNN+wHiT4YREk0EE0lsPmWweU&#xA;rKrwRH7E8lAh+dDVP9l+vbLpaeQFtYzRJpNgQRUbg9DlDa7FXYq7FXYq7FXYq7FXYq7FXYq7FXYq&#xA;7FXYq7FXYq7FXYq7FXYq7FXx35b/AOchdb0fWry08yRtq1gbmVfrYIF5GokNPiO0qqNlVqH/ACqC&#xA;mb8YhW2zqzI3u938tebPL3mawF7ot7HdwinqKppJGTWiyRmjIdj1G/bKyCFY558/LVtflN/Z3jpe&#xA;qtBBOzPCfZa1Mf0bZl6XV+HsRt9rg6vReLuDv9j0D8p7aXT/ACRp+lXdI9Qs/WW4t6gsvK4kZTt1&#xA;UgggjbNN2geLNKQ5F22giY4YxPMMwzCcx2KuJAFTsB1OKpLe+Y4xVLBRM3+/2r6Q+VKF/o298yce&#xA;mJ57NE84HJJJXlnl9a4kaaXs7fsg9lUfCv0DfvmdCAiNnFlMy5sN81fmdoOh87eBhf6gNvRiYcEP&#xA;+XJuB8hU5m4NJPJvyDg6jWwxbc5dyc/kb5m1TX7DWLi+ccY7lBb26CkUSlCSqLvQE7n3zA7W08cU&#xA;4gdzldlamWWEie96JFqunS3Jto7hGmGwUHYkdQrdGI7gHbNaccgLrZ2YmLpFZBk7FXYq7FXYq7FX&#xA;Yq7FXYq7FXYq7FXYq7FXYq7FXYq7FXYq8582/mFqcU8un2ED2JTZ5plpKf8AVU1Cg+P6sVfFHmDT&#xA;tQsNWuYb+B4JjI7ASD7QLH4gejA+IzoscxIWHVTiQd1PR9a1bRb+O/0q7ks7yL7M0TFTTuD2ZT3B&#xA;2OTIti948hf85IWs/p2PnCIW8uyrqtupMbdB+9iFSp8WSo/yRlMsXcyBe2Wd5ZX9vDfWNwlxA45W&#xA;91bvUEdCUkQ/RscplG9iyBrkndl5huIaJegzR/7/AEADj3ZBQN/sd/8AJOYeTS9YuTDP3o648x6a&#xA;kdbdxdSnpHEQaH/LbonuD8XtlEMEie5ulliEjvb27vifrT/uu1sm0f8Asv5/9lt3AGZ2PDGPvcSe&#xA;UySDzH5v0Ly/Dz1C4AlIrHap8Ur/ACXt8zQZlYsMpmohxc2eGMXIvH/Nf5o67rXO3tSdP087elGf&#xA;3jj/AC5Nj9AoM2+DQRjvLc/Y6TUdozntH0j7Ug0Ly1rWu3Ho6bbNLT+8lO0af6znYZk5c8MY3Li4&#xA;dNPKfSHufkXyhL5Z0maye8adrtxLcog4RkheIX+Zh167HwzQarIMs+Ijk9HpMJww4QebIykbL6ZC&#xA;lQB8BAIp22+jKXITCy1q9tKLIWuoB+yxrKB/kuT8Xyb78xsmmB5bN8M5HNkFlqFpeoWt5ORWnNDs&#xA;616clO46ZgzgYmi5UZA8kRkWTsVdirsVdirsVdirsVdirsVdirsVdirsVdirsVdiqA1fQ9L1aD0b&#xA;6BZQPsP0df8AVYbjFXlXnf8AJ4T2rqbddW04fEI2H7+P3HGh+lN/bJwySgbBpjKIlzfPPmv8odRs&#xA;edzorNeW6/atX/3oWnWlKB/wPsc2mHXCW0tj9jh5NORyeeyRyRu0cilJENGRhQgjsQcznGZD5O/M&#xA;HzT5RuvW0e7KQswaeykq9vLT+eOvU9OS0b3wSiCm30T5C/Pfyr5k9Kz1Fho+rtRfSmYehI3/ABXM&#xA;aAV/leh7DllEsZDIF6HqOp6fptq11f3CW1un2pHNB8h3J9hkYxMjQRKQiLOweV+a/wA455udp5fQ&#xA;wxGqm+lH7w/8Y06L8zv8s2eDs/rP5Oo1HafTH83nSR6nq1/xQS3t9cN7ySMx8epzZXHHHuDqgJ5Z&#xA;dZSL0vyp+TZPC68wvQdRYRH8JHH6l+/NZn7QJ2h83b6fswDefyelomk6Lp1FEVjYW679ERR4n3/X&#xA;mtsyPeXagCI7gHnHmv8AOREL2vl2Pmwqpv5V+H5xoevzb7s2ODs8nee3k6vUdpgbQ3Pf0eMaz5/8&#xA;36T5nj1ay1SZbySIesXYukgDt8Lo1VK+1Nu2HV4oxIAG1NnZ+WU4EyNm/wBT1zyF/wA5DaDq/p2X&#xA;mNV0nUDRRc1JtZD/AKx3j/2W3vmBLGRydgC9cjdJBHcQSb05QzxNvRt6qw7H7jlMog7FmCRyTiy8&#xA;xSx0S+X1E7XEY+If68Y6/Nf+BzDyaXrFyYZ+9PYZ4Z4llhdZIm+y6kEHt1GYhFc3IBtfgS7FXYq7&#xA;FXYq7FXYq7FXYq7FXYq7FXYq7FXYq7FXYqkPmDyXo2tBpJE+r3h6XUQAYn/LHRvp398VeJ/mL+TM&#xA;UytJqNryptFq1qKMOw9Tb26P9By/DqJY+XJrniEubwXzT+XOvaDznC/XdPXf61CD8I3/ALxNyvz3&#xA;Hvm1w6qM9uRcLJhMfcxXMlpZ55f1PUbzRoI7u6luEti0Vusrs4jQbhU5E0HsM2ejiBG+roe0pHxK&#xA;6UzLyJ5XsvM+qS2T6nDavbUMtryH1l1K8qxoaVFOrdsGp1nh7AWV0mgOQcRNRe66D5Y0TQLb0dOt&#xA;1iJFJJ23kf8A1nO/0dM02TLKZuRd7iwxxioimO+a/wA1dE0fnbWNNRvxtxQ/uUP+W46/Jfwy/Bo5&#xA;z35BxtRroY9ucnkPmHzVrmv3Hq6jcF0BJjt1+GJK/wAqfxO+bjDp4Y+Q3dHn1U8vM7dyWW1rc3U6&#xA;W9tE888hokUal3am+yrU5ZPJGAuRoNWPHKZqIsoLzZ+XfmeWKPUIIFm4JxktY25TLQk140o3XopJ&#xA;zQ5+0cWSe3zem0egyYse/MlZ5D/JXzZ5qdLiWI6XpNRyvLhSGYV39KM0ZvnsPfBLIA3U+mfJXkzT&#xA;fKWjJpdhNPPGKF5LiRnq3cqhPCMeyge9colK2SNfzLoCasmkPqEC6nICUtS4DmhAoP8AK3+z1x4T&#xA;V1sjiF11TSCae2lM1tIYpDu3dHp/Ov7X6/AjKp4xLm2QmY8k9sfMVvIRHeAW0vQSE/umP+sfs/Jv&#xA;kCcwcmnMeW4cuGYFN8x252KuxV2KuxV2KuxV2KuxV2KuxV2KuxV2KuxV2KuxVplVlKsAysKEHcEH&#xA;FWG+Yvy10695T6YRZXJ3MX+6WPyG6fRt7Yq8X82f8416pqxkuNPsFsL/AHPOOSH0JCBtyj5jjWnV&#xA;fmQczcOtlHY7hx8mnB5bFb+X/wDzjr5itreQ+cbiLRtPtpGLmOWOWSVdt1YFo41Pi2/+TmyPa4hC&#xA;oC5fc6ufZJy5OKZqLyb83otI0r8zNRj8su8Fha/Vvqcqs4cMLaMs4djzqZKmuHBllkgJS3Jb5Yo4&#xA;zwxFAJ9pf5k+dNa8urZajqUksUTGJmACvIoVaCV1AL/T175stHp4EcRG7p+0dTOJ4QaFIXNi6d6J&#xA;5H/JPzN5i9O7vwdI0pqMJplPrSKRUelCaGh/mag7jlmo1fa+PHtD1S+x3Gk7Hnk3n6Y/a9y0Ly35&#xA;N8kW31fTLYfXHUepKaSXco8Xc04rUdPhWvQVzn8mXLqJXI39z0eLDiwRqIr70s1HTbDUdQ+vXNpE&#xA;sn++0B4k+MnTm3uR9GXY9PGPmWueYlC655j0XQbX1tRuFhWn7uIbu3siDc/qzLx45TNRFuNkyxgL&#xA;kaeR+a/za1jVOdtpYOnWJ2Lg/v3Hu4+z8l+/Ntg7PjHeW5dLqO05S2hsPteP+cpJB9UkDESBnYPU&#xA;1r8JrXJa0UAz7LNmRPky7yF/zkD5i0P07LXQ2saYtFEjGl1Gv+S5+3Twb781csYLuAX0L5V86eWv&#xA;NVl9a0a8S4AA9aA/DNHXtJGdx+rKTEhkySy1C8saLAweAf8AHtITwp/kHqn6vbMfJgjLyLdDMYp/&#xA;Ya3Y3brCG9K6YEi3kIDkL1KdnA78enemYOTFKPNy4ZBLkj8qZuxV2KuxV2KuxV2KuxV2KuxV2Kux&#xA;V2KuxV2KuxV2KuxVhHnnyjrmqObq0u2uI03XT3IULt1jpRSf9bf3xV86/mD+T2uarqFxqunxzC/c&#xA;KJrOaNlBMahPgenwmijZvvGbDTawRHDLk42bBxGwgPy0/Knz1q/r2CaZLZmCdlubi8VoYo/gQ/aI&#xA;+I0INEBNN+mbvH2jixY7Js9wdFqez8mbKKFCufzfSXkb8mvLHlgxXcy/pPV0owvJ1HCNga1hi3CU&#xA;/mNW9xmk1faWTNtyj3O20nZuPDvzl3oH8wvzj0byr5wtfK+qStp8d5ZR3iamBzSskssXptSpj/uf&#xA;tUPX9mlTDTaYTHEW/NlMTQRf6S0uOwOo/WovqLj1TeeoGRwf2/UqeVfGu+Zoj0DiSl1LzfzV+cqJ&#xA;ztfLsfNtwb+VdvnHGevzb7s2WDs8nee3k6rUdpgbQ3Pe8tvr+9v7l7q9ne4uH+1JIxYn782sMcYi&#xA;gKdNkySmbkbKP8ueVPMHmS9+p6NZvdSD+8cfDHGDvWSRqKvTap37ZTqNXjwi5H9bdptJkzGoD9SP&#xA;82fkvqIt1tr2ZrXVYiTEGWsDA7UBG53A+IH6M57L2sck/p9P2vS6bssYYnf1H5KPkf8A5xw1S8lF&#xA;15qm+pWaseNnAazyAHYliKRqfly9hlxy9zLhe9aJ5f0Dy3pv1TS7WKws4xV+NBWg+1I53Y+7HKSS&#xA;UsP81/m/plhzttFUX12KgzmogQ+1N3+jb3zOwaGUt5bB1+o7RhDaPqP2If8AIzXNV1v8x7u61O4a&#xA;5lXS5zGG+yn+kW4+BRsvXtkO18MceECI/i/QV7IzzyZiZH+H9IfQOc09I7FXYq7FXYq7FXYq7FXY&#xA;q7FXYq7FXYq7FXYq7FXYq7FXYq7FXYqgdW1vTNJg9a+nWJT9hOrsfBVG5xV8c/8AOTHmGPXfP1pd&#xA;xRGGKPTYoYwxqxC3E7cjTp9rpm37P+g+/wDU4Oq+r4MT8nXt41jcWjTyNaRyK8duXYxq7AhmCVoC&#xA;aCpze6KI3PV0Hasj6R7/ANDJLOzu725jtbOGS5uZjxigiUu7HwVVqTmbkyRgLkaDqseOUzURZeye&#xA;Rv8AnHu4mMd95tkMMWzLpUDD1Dv0mlXZR7Ia/wCUDnP6vtrpi+f6nodH2JXqy/L9b1aG70XRLJdM&#xA;0G0iSGH4VSEBYUPQlmH228epr1IzUDFPIeKRdzxwxjhiEtuJZrqUTXT+rIpqgpREr/Ivb59ffMyG&#xA;OMeTjzmZc2K+afzE0Dy+Gid/rd+OlnCQSD/xY24T9ftmXh008nLl3uFn1cMXM79zx3zP571/zC7L&#xA;czejZ1+GziqsY/1u7n55ucGkhj35l0eo108m3KPcl9p5b168sJL+1sJprOL7UyISPendqd6dMslq&#xA;IRNE7tUNNklHiANPZ/yJ/LvzLo2qS+YdVhFnb3Nm9tBbSGk59SSKQOyAfAKRUox5e2c92trseUCE&#xA;d6PN6HsjQZMRM57WOT2nNE712KuxV2KuxV2KuxV2KuxV2KuxV2KuxV2KuxV2KuxV2KuxV2KuxVj3&#xA;mXyVpmuEzsWt74Ci3C7ggdA6nYj5UOKvIfOP/OP1/wCYGPrwL9aiXhb38Mqg8dyAVcjktWrQj5HM&#xA;jBqZY+XJqyYhJjfkj/nGPzjbardW+s3EFppdUZbyNhLJIvxfCkQPwt48jQV25Ztsfa0ccDQuRdXq&#xA;OyzlkLNRD6E8p+RfLPlW19HSLQJKwpNeSfHcSdPtyEdKivEUXwGanUarJlNzNuy0+mx4hUBTyv8A&#xA;Pn83db8kebtJsY4VvNFu7MzXlkT6bs/qsnJZVBPQfZYFT4d8ydFhjIEnnbXqJkGkRo/5w+QdT0Zt&#xA;SgvxF6fwvYSrxulPYekpaoP8ykr75nRwSkaAtwsmaMBcjQYJ5r/NnWNU522lg6fYtUFgf37j3YfZ&#xA;+S/fm0wdnxjvLcum1HacpbQ2H2sDJLEsxqTuSepObAB1ZNrrrUr3yvLpOuXuji+0m6kkEcdyHjjn&#xA;EXHl6Tjrx5daMviDmv1WoB9MZb9advoNJ/FOO3S3vXkP8z/J/my3jh0uYWt8i/FpU3GOVQo39NR8&#xA;LqKdU7daZqJRId0CzWzvLuyP+ivSPq0Dbxn5D9k/6v01zHyYYy97bDKYsg0/XLW7YROPQuT0ic7N&#xA;/qN0b5dfbMHJhlH3OXDKJJjlLY7FXYq7FXYq7FXYq7FXYq7FXYq7FXYq7FXYq7FXYq7FXYq7FXYq&#xA;7FXYqknmTzbpugoqzhpbmReUVug3IrSpY7AYq+SP+cjte1DXfMunXtzGI41tTFCqA8QBIzU5Hqd9&#xA;823Z/wBJ97harmGBeTv97Z/+Mf8AxsM3mi+o+50Xan0D3vQ/LflTzB5kvfqejWb3Ug/vHHwxxjrW&#xA;SRqKvtU79sydRq8eEXI/rdbptJkzGoj49HsmjflV5P8AJdtFqPmtxrGqNvBZqpNsGFOiMBzp/NJt&#xA;/k1zmtX2tkybR9Mftem0fZOPFvL1S+x5b/zkr5mvtfi0R2gWCytXuFhjQEhOYjoGfxITbp0yvs47&#xA;y+Dl6ro8NillhkWWJ2jlQhkdCVYEdCCOmbNw3sPkH/nIrWtL9Ox80I+q2I2W9Wn1qMf5VaLKPmQ3&#xA;ucrlj7mQL6A0DzL5d8zacLzSLyK/tTs4X7SH+WSNqMh26MMoIrmytkVlrN9aUVybqAfsuf3oH+S5&#xA;+18m/wCCGYuTTA8tm+GcjmyCy1G0vUJgerL9uM7Otf5lP6+mYU4GJ3cqMgeSJyDJ2KuxV2KuxV2K&#xA;uxV2KuxV2KuxV2KuxV2KuxV2KuxV2KuxV2KuxVDahplhqNube9gWeI/ssNwfFT1B9xirAtY/JbSN&#xA;SWWB7oNYy/8AHtPCJqf7LmnTsaVGSjMxNhBAPNi2hf8AOK3lfTNfa/l1Se401130xU9P4uQNPW5u&#xA;/Cm1Ptf5WbCHaeSMaH1d7hZez8eQji5Do9k0vSdM0myjsdNtY7S0iFEhiUKvzNOpPcnc5r5zMjcj&#xA;ZcyEBEUBQVbuztbyBre6iWaF/tRuKjIsnnnmn8qIp4ZW0xVngcH1NPuKMpHgpbY/JvvwgkGwgi3z&#xA;z5y/JX05pn0gGzukqZNOuKha0rRGO617BtvcDNjh1/SfzcXJpv5rynUdM1DTbprW/t3t7hOqOKbe&#xA;IPQj3GbKMxIWHElEjYq2ia/rOhX6ahpF5JZXcfSWI0qK14sPssp7qwphItD3ryF/zkfY3QjsfN0Q&#xA;s7igUanApMLEDrLGKshPitR7KMpli7mQL2m1urW7hivLKdZomHK3urdwwIO1UkQ9D7HKZRB2LMEj&#xA;kj7fzzZ22qWWj6jMkl7fOIrYJT1akVBkjGwXb7Qp8sxMmjPCZR5BvhqhxCMuZ5MtzBctBX+sWdke&#xA;DkyXFKiCOhf5noFHuxHtlmPFKXJhPII82P3mpX941ZJGgjH2YYHZae5ccWY/cPbM7Hp4x57uJPMT&#xA;5Imy1+6t6JdA3MP+/VoJVHuNg/4H5nK8ml6xbIZ+9P7W7trqL1beQSJWhI6g+DA7g+xzClEg0XJB&#xA;B5KuBLsVdirsVdirsVdirsVdirsVdirsVdirsVdirsVdirsVdirsVdiqX6zoGlaxD6V9AHIFElG0&#xA;if6rDf6OmKvJvPP5PCe1dZLZdW08VKnjSeLvUU+IdOqH5imTx5ZQNgsZQEub5880/lFqdjzudFZr&#xA;62G5tmoLhRv0AoH6dt/bNph10ZbS2P2OHk05HLd586PG7I6lHU0ZWFCCOxBzOcZln5fec/NGhaj9&#xA;U0vUJbe1uldZoBRoz8BPIKwYK+32locsw4ozmAXH1WWUMZkOb0v8t7qaT8wtIvLl5JmW4Es8p5SN&#xA;QA1Y05MczO0IgaeUQ6ns6RlqIyO/9j6Rvddu7mqW9bWA7FtvVYfMVCD5b+4Oczj0oG8nqp5+5KZp&#xA;ra0t5J5nEcMYMksjHw3LMepOZQHQOOT1Lyfz1+eJsbSY+XIFmMJUm6uAeLDkAQiAg7jufuzPGhkI&#xA;GUtvJwBr4yyCEd/NM/IP56eVvM3p2d8w0jVm29CZh6Mhp/uuU0H+xah+eYksZDnAvS0aSKUTQu0U&#xA;wFPUTY08DWoYexGUygJCizjIjknVl5kXZNQURH/loSvpf7IGpT6aj3zCyaYjcbuVDODzTpWVlDKQ&#xA;ysKqw3BB7jMVvbxV2KuxV2KuxV2KuxV2KuxV2KuxV2KuxV2KuxV2KuxV2KuxV2KuxVj3mHyRo+sh&#xA;peP1W9PS5iA3P+WvRv1++KvFfP8A+SLXrSNd2LvKFJj1WzUseKjrJQdAOzj5HMjDqZw2G47mrJij&#xA;LmwvyZ/zjzrX6aF5qV6kOlQkmFkVvXmVgR9htk2PUk+1c3OLVEVKt3WZ8AmDEnZ7toXlvRdCtvQ0&#xA;63WEEfvJTvI9O7udz+rK8mWUzciuLDHGKiKYr5x/OPy15dRvSV9UkiZROLdlCoCwU0c7Mwr0H3jL&#xA;Y6WZjxcg1nVQ4xAG5Mg8p+ePLPmu0+s6LeLOVFZbdvhmj7fHGdx8+mUGJDkWx/z3+UOh+ZLK4FkR&#xA;pmoSjaWNaxMwNRzjFPDquXw1MxHhO4aDpYcYmBUnzT5y/LzzT5RufT1a0It2NIb6KrwSfJ+x9moc&#xA;lGQLbTIfIX54ea/K/p2lyx1XSFoPqs7H1EX/AIql3I+RqMjLGCoL6K8l/mT5U8324bS7oLdgVlsJ&#xA;qJOnj8NfiHutRlEokMrZbaXV1ZNW1fipNWhbeMk9fh2ofdae9coyYYy5tsMpin9hr1rcssUo+r3D&#xA;bCNzVWPgj7BvlsfbMHJglH3OXDKJJllLY7FXYq7FXYq7FXYq7FXYq7FXYq7FXYq7FXYq7FXYq7FX&#xA;Yq7FXYq8h/5yf1nU9G8gWGoaZcNa3kOrW5jlT/jDMaEGoI9jmboBcz7nH1P0vOfIX/OR1jd+nY+b&#xA;YhZ3Boq6lCCYWPT94gqU+YqPlmyli7nCBexkaXrOmkBor3T7tPtKweN1Pgyn9WVAkFJFh5H+Yn5J&#xA;XU2m3T+WG9UsAwsJWAbZg1I3Ox6bBvvzPGuMoGMvm4EdBGGQTjy7ngAbzB5a1g0NxpWq2jUP2opU&#xA;I+7b8Dlexcx7T5C/5yQI9Ow84RVGyrqsC7/OaIfrT7spli7mQL22C40LzDpXqQvb6npd0tDTjLE4&#xA;PUEbj6DlXJk8f8+/844WV16l95RlFpOasdMmJMLHrSKQ1KfJqj3GWxy97Eh4VqOl+YfLWrejewz6&#xA;ZqVu3JCeUbg9mRx1Hupy0EFi9Z8g/wDORupWZjsfNkZvrb7K6hEAJ18Oa7K/z2PzyuWLuZAp55y/&#xA;NrU9Ugns9LQ2Ng6srOaGaRSO53CD5ffmxw9niO8ty6XP2mZGobDvfU2cc9e7FXYq7FXYq7FXYq7F&#xA;XYq7FXYq7FXYq7FXYq7FXYq7FXYq7FUBrl9qFlp8k9hZm9uF6RA0oP5qdWp4DfFXzb+c7eafN2hm&#xA;Ilp7i3nWYWf2AqorKwRDty+LvucytHkEJ2e5pzwMo7PnWeCe3meGeNopoyVkjcFWUjYgg7jN2Dbr&#xA;yGSeTPzG81eUbgPpV0fqpas1jLV4H8ap2PutDglEFbfRPkL88vKvmf0rS8YaTq7UH1edh6Ujf8VS&#xA;mgPyah+eUSxkMgWVebPIvljzXafV9Zs1mZRSK5X4J4/9SQb/AEdPbIiRC0+evO//ADj75p0WX19D&#xA;Da1p7MAojFLlK7DnH+1/rL9wy6OQFiQ9A/J38oPM/lq4Gq6rqstk0gBbR7VgyP8A8xBIZD/sR/ss&#xA;hOYKQHr9zdW1rA9xcyrDBGKvLIQqge5OVgWkmubxv80fPPl3zBp8ukWenRaiaMIr65UgI5FKwU4u&#xA;D/lVHyObDFopAcUtnW5e0Y8QjDffm+e9S0nUtKvDaahbvbzqfsuNiK0qp6MPcbZTCYkLBdjKJGxe&#xA;p6D5W17zHdGx0aze7nI+MrskYPeRzRUHzObfU6nHijcjTzGm0uTLKoh9n5wj3jsVdirsVdirsVdi&#xA;rsVdirsVdirsVdirsVdirsVdirsVdirsVdiqSa/5Q0bWlLTx+ldU+G6ioH/2XZh88VeMfmF+TUc0&#xA;bNqVr9ZhUUj1O2HGVB/lbEj5NVcuxZ5Y+TXPGJc3gfmn8std0UPcW4OoaetSZolPNABUmSPcgDxF&#xA;R40za4dXGe3IuHkwGPmGH5lND0fyF+ePmrywY7S8Y6tpC0H1adj6sa/8VSmpG37LVHyyEsYKQX0V&#xA;5L/Mbyr5vtuelXQF0oBmsZaJOn+wr8Q91qMolEhlaB81/mnoejc7eyI1DUBUcI2/dIf8txX7l/DM&#xA;nBo55N+QcPUa6GPbnLueQeYfNmua/P6mo3BaNTWO3X4Yk/1V/id83GHTQx8ubo8+rnl5nbuQOlWk&#xA;t5qdraxRPPJNKiLDGCzNVhsAu/3ZLUSEYEk1sw00TLJEAXuH1Vqv5S/l5q1t9W1HR0uYeoDyz1U+&#xA;KsJAyn3BzhIZJQNxNPeyiJc2RaRo2laPYpY6Xax2dpH9mKJQorQDkx6sxpux3PfGeSUzcjZRCEYC&#xA;oigjMgzdirsVdirsVdirsVdirsVdirsVdirsVdirsVdirsVdirsVdirsVdiriARQ7g9RirEPMX5c&#xA;6XqHKewpY3Z3IUfuWPuo+z/sfuxV4N+YP5LW8k0jT2x0zUXqUu4hWCU+LAfC30UbxzLw6yUNjuGj&#xA;JgEvIvEvMXlDXfL83G/gPok0juo/iibrSjdjt0ahza4s8ZjYuHPGY80HoskkerWjRsUb1FFVJBoT&#xA;QjbMnELmPe4uoNY5V3M/zdPLvQvI35LeZvMnp3d4DpOktRhcTKfVkUioMURoSD/M1B3HLpmp1fa+&#xA;PHtH1S+x2+j7IyZN5+mP2vf/ACj5B8seVLf09JtQJ3XjNey/HcSDb7T0FBt9lQF9s5rUarJmNzP6&#xA;nptPpceEVAMhzHch2KuxV2KuxV2KuxV2KuxV2KuxV2KuxV2KuxV2KuxV2KuxV2KuxV2KuxV2KuxV&#xA;2KqV1aW13A0FzEs0L7NG4DA/QcVYB5i/KW2uw4054/q8u0tnd1eOh8DRyR7MPpwgkGwpFvLdX/5x&#xA;P1JtQhvtFvbO0KSK8lpI8zREAipRvTZl+W4+WbLTdomJHGLpwdTo+OJEdreq+R/yX8seWvTu7pf0&#xA;rq6UYXM6j042HeGLcL/rNVvAjpkdX2nkzbfTHuH6WGk7Mx4d/ql3l6Dmudi7FXYq7FX/2Q==</xmpGImg:image>
               </rdf:li>
            </rdf:Alt>
         </xmp:Thumbnails>
      </rdf:Description>
      <rdf:Description rdf:about=""
            xmlns:xmpMM="http://ns.adobe.com/xap/1.0/mm/"
            xmlns:stRef="http://ns.adobe.com/xap/1.0/sType/ResourceRef#"
            xmlns:stEvt="http://ns.adobe.com/xap/1.0/sType/ResourceEvent#">
         <xmpMM:RenditionClass>proof:pdf</xmpMM:RenditionClass>
         <xmpMM:OriginalDocumentID>uuid:65E6390686CF11DBA6E2D887CEACB407</xmpMM:OriginalDocumentID>
         <xmpMM:DocumentID>xmp.did:D278FFC83B61EC11805AA242329D5202</xmpMM:DocumentID>
         <xmpMM:InstanceID>xmp.iid:D278FFC83B61EC11805AA242329D5202</xmpMM:InstanceID>
         <xmpMM:DerivedFrom rdf:parseType="Resource">
            <stRef:instanceID>xmp.iid:D26860DA3661EC11A495E04A8451174C</stRef:instanceID>
            <stRef:documentID>xmp.did:D26860DA3661EC11A495E04A8451174C</stRef:documentID>
            <stRef:originalDocumentID>uuid:65E6390686CF11DBA6E2D887CEACB407</stRef:originalDocumentID>
            <stRef:renditionClass>proof:pdf</stRef:renditionClass>
         </xmpMM:DerivedFrom>
         <xmpMM:History>
            <rdf:Seq>
               <rdf:li rdf:parseType="Resource">
                  <stEvt:action>saved</stEvt:action>
                  <stEvt:instanceID>xmp.iid:C127EE843B60EC11A262FB979D9A75A8</stEvt:instanceID>
                  <stEvt:when>2021-12-18T16:16:35-05:00</stEvt:when>
                  <stEvt:softwareAgent>Adobe Illustrator CS6 (Windows)</stEvt:softwareAgent>
                  <stEvt:changed>/</stEvt:changed>
               </rdf:li>
               <rdf:li rdf:parseType="Resource">
                  <stEvt:action>saved</stEvt:action>
                  <stEvt:instanceID>xmp.iid:D278FFC83B61EC11805AA242329D5202</stEvt:instanceID>
                  <stEvt:when>2021-12-19T21:23:14-05:00</stEvt:when>
                  <stEvt:softwareAgent>Adobe Illustrator CS6 (Windows)</stEvt:softwareAgent>
                  <stEvt:changed>/</stEvt:changed>
               </rdf:li>
            </rdf:Seq>
         </xmpMM:History>
      </rdf:Description>
      <rdf:Description rdf:about=""
            xmlns:illustrator="http://ns.adobe.com/illustrator/1.0/">
         <illustrator:StartupProfile>Web</illustrator:StartupProfile>
      </rdf:Description>
      <rdf:Description rdf:about=""
            xmlns:xmpTPg="http://ns.adobe.com/xap/1.0/t/pg/"
            xmlns:stDim="http://ns.adobe.com/xap/1.0/sType/Dimensions#"
            xmlns:xmpG="http://ns.adobe.com/xap/1.0/g/">
         <xmpTPg:NPages>1</xmpTPg:NPages>
         <xmpTPg:HasVisibleTransparency>True</xmpTPg:HasVisibleTransparency>
         <xmpTPg:HasVisibleOverprint>False</xmpTPg:HasVisibleOverprint>
         <xmpTPg:MaxPageSize rdf:parseType="Resource">
            <stDim:w>2741.977539</stDim:w>
            <stDim:h>1596.159180</stDim:h>
            <stDim:unit>Pixels</stDim:unit>
         </xmpTPg:MaxPageSize>
         <xmpTPg:PlateNames>
            <rdf:Seq>
               <rdf:li>Cyan</rdf:li>
               <rdf:li>Magenta</rdf:li>
               <rdf:li>Yellow</rdf:li>
               <rdf:li>Black</rdf:li>
            </rdf:Seq>
         </xmpTPg:PlateNames>
         <xmpTPg:SwatchGroups>
            <rdf:Seq>
               <rdf:li rdf:parseType="Resource">
                  <xmpG:groupName>Default Swatch Group</xmpG:groupName>
                  <xmpG:groupType>0</xmpG:groupType>
                  <xmpG:Colorants>
                     <rdf:Seq>
                        <rdf:li rdf:parseType="Resource">
                           <xmpG:swatchName>White</xmpG:swatchName>
                           <xmpG:mode>RGB</xmpG:mode>
                           <xmpG:type>PROCESS</xmpG:type>
                           <xmpG:red>255</xmpG:red>
                           <xmpG:green>255</xmpG:green>
                           <xmpG:blue>255</xmpG:blue>
                        </rdf:li>
                        <rdf:li rdf:parseType="Resource">
                           <xmpG:swatchName>Black</xmpG:swatchName>
                           <xmpG:mode>RGB</xmpG:mode>
                           <xmpG:type>PROCESS</xmpG:type>
                           <xmpG:red>0</xmpG:red>
                           <xmpG:green>0</xmpG:green>
                           <xmpG:blue>0</xmpG:blue>
                        </rdf:li>
                        <rdf:li rdf:parseType="Resource">
                           <xmpG:swatchName>RGB Red</xmpG:swatchName>
                           <xmpG:mode>RGB</xmpG:mode>
                           <xmpG:type>PROCESS</xmpG:type>
                           <xmpG:red>255</xmpG:red>
                           <xmpG:green>0</xmpG:green>
                           <xmpG:blue>0</xmpG:blue>
                        </rdf:li>
                        <rdf:li rdf:parseType="Resource">
                           <xmpG:swatchName>RGB Yellow</xmpG:swatchName>
                           <xmpG:mode>RGB</xmpG:mode>
                           <xmpG:type>PROCESS</xmpG:type>
                           <xmpG:red>255</xmpG:red>
                           <xmpG:green>255</xmpG:green>
                           <xmpG:blue>0</xmpG:blue>
                        </rdf:li>
                        <rdf:li rdf:parseType="Resource">
                           <xmpG:swatchName>RGB Green</xmpG:swatchName>
                           <xmpG:mode>RGB</xmpG:mode>
                           <xmpG:type>PROCESS</xmpG:type>
                           <xmpG:red>0</xmpG:red>
                           <xmpG:green>255</xmpG:green>
                           <xmpG:blue>0</xmpG:blue>
                        </rdf:li>
                        <rdf:li rdf:parseType="Resource">
                           <xmpG:swatchName>RGB Cyan</xmpG:swatchName>
                           <xmpG:mode>RGB</xmpG:mode>
                           <xmpG:type>PROCESS</xmpG:type>
                           <xmpG:red>0</xmpG:red>
                           <xmpG:green>255</xmpG:green>
                           <xmpG:blue>255</xmpG:blue>
                        </rdf:li>
                        <rdf:li rdf:parseType="Resource">
                           <xmpG:swatchName>RGB Blue</xmpG:swatchName>
                           <xmpG:mode>RGB</xmpG:mode>
                           <xmpG:type>PROCESS</xmpG:type>
                           <xmpG:red>0</xmpG:red>
                           <xmpG:green>0</xmpG:green>
                           <xmpG:blue>255</xmpG:blue>
                        </rdf:li>
                        <rdf:li rdf:parseType="Resource">
                           <xmpG:swatchName>RGB Magenta</xmpG:swatchName>
                           <xmpG:mode>RGB</xmpG:mode>
                           <xmpG:type>PROCESS</xmpG:type>
                           <xmpG:red>255</xmpG:red>
                           <xmpG:green>0</xmpG:green>
                           <xmpG:blue>255</xmpG:blue>
                        </rdf:li>
                        <rdf:li rdf:parseType="Resource">
                           <xmpG:swatchName>R=193 G=39 B=45</xmpG:swatchName>
                           <xmpG:mode>RGB</xmpG:mode>
                           <xmpG:type>PROCESS</xmpG:type>
                           <xmpG:red>193</xmpG:red>
                           <xmpG:green>39</xmpG:green>
                           <xmpG:blue>45</xmpG:blue>
                        </rdf:li>
                        <rdf:li rdf:parseType="Resource">
                           <xmpG:swatchName>R=237 G=28 B=36</xmpG:swatchName>
                           <xmpG:mode>RGB</xmpG:mode>
                           <xmpG:type>PROCESS</xmpG:type>
                           <xmpG:red>237</xmpG:red>
                           <xmpG:green>28</xmpG:green>
                           <xmpG:blue>36</xmpG:blue>
                        </rdf:li>
                        <rdf:li rdf:parseType="Resource">
                           <xmpG:swatchName>R=241 G=90 B=36</xmpG:swatchName>
                           <xmpG:mode>RGB</xmpG:mode>
                           <xmpG:type>PROCESS</xmpG:type>
                           <xmpG:red>241</xmpG:red>
                           <xmpG:green>90</xmpG:green>
                           <xmpG:blue>36</xmpG:blue>
                        </rdf:li>
                        <rdf:li rdf:parseType="Resource">
                           <xmpG:swatchName>R=247 G=147 B=30</xmpG:swatchName>
                           <xmpG:mode>RGB</xmpG:mode>
                           <xmpG:type>PROCESS</xmpG:type>
                           <xmpG:red>247</xmpG:red>
                           <xmpG:green>147</xmpG:green>
                           <xmpG:blue>30</xmpG:blue>
                        </rdf:li>
                        <rdf:li rdf:parseType="Resource">
                           <xmpG:swatchName>R=251 G=176 B=59</xmpG:swatchName>
                           <xmpG:mode>RGB</xmpG:mode>
                           <xmpG:type>PROCESS</xmpG:type>
                           <xmpG:red>251</xmpG:red>
                           <xmpG:green>176</xmpG:green>
                           <xmpG:blue>59</xmpG:blue>
                        </rdf:li>
                        <rdf:li rdf:parseType="Resource">
                           <xmpG:swatchName>R=252 G=238 B=33</xmpG:swatchName>
                           <xmpG:mode>RGB</xmpG:mode>
                           <xmpG:type>PROCESS</xmpG:type>
                           <xmpG:red>252</xmpG:red>
                           <xmpG:green>238</xmpG:green>
                           <xmpG:blue>33</xmpG:blue>
                        </rdf:li>
                        <rdf:li rdf:parseType="Resource">
                           <xmpG:swatchName>R=217 G=224 B=33</xmpG:swatchName>
                           <xmpG:mode>RGB</xmpG:mode>
                           <xmpG:type>PROCESS</xmpG:type>
                           <xmpG:red>217</xmpG:red>
                           <xmpG:green>224</xmpG:green>
                           <xmpG:blue>33</xmpG:blue>
                        </rdf:li>
                        <rdf:li rdf:parseType="Resource">
                           <xmpG:swatchName>R=140 G=198 B=63</xmpG:swatchName>
                           <xmpG:mode>RGB</xmpG:mode>
                           <xmpG:type>PROCESS</xmpG:type>
                           <xmpG:red>140</xmpG:red>
                           <xmpG:green>198</xmpG:green>
                           <xmpG:blue>63</xmpG:blue>
                        </rdf:li>
                        <rdf:li rdf:parseType="Resource">
                           <xmpG:swatchName>R=57 G=181 B=74</xmpG:swatchName>
                           <xmpG:mode>RGB</xmpG:mode>
                           <xmpG:type>PROCESS</xmpG:type>
                           <xmpG:red>57</xmpG:red>
                           <xmpG:green>181</xmpG:green>
                           <xmpG:blue>74</xmpG:blue>
                        </rdf:li>
                        <rdf:li rdf:parseType="Resource">
                           <xmpG:swatchName>R=0 G=146 B=69</xmpG:swatchName>
                           <xmpG:mode>RGB</xmpG:mode>
                           <xmpG:type>PROCESS</xmpG:type>
                           <xmpG:red>0</xmpG:red>
                           <xmpG:green>146</xmpG:green>
                           <xmpG:blue>69</xmpG:blue>
                        </rdf:li>
                        <rdf:li rdf:parseType="Resource">
                           <xmpG:swatchName>R=0 G=104 B=55</xmpG:swatchName>
                           <xmpG:mode>RGB</xmpG:mode>
                           <xmpG:type>PROCESS</xmpG:type>
                           <xmpG:red>0</xmpG:red>
                           <xmpG:green>104</xmpG:green>
                           <xmpG:blue>55</xmpG:blue>
                        </rdf:li>
                        <rdf:li rdf:parseType="Resource">
                           <xmpG:swatchName>R=34 G=181 B=115</xmpG:swatchName>
                           <xmpG:mode>RGB</xmpG:mode>
                           <xmpG:type>PROCESS</xmpG:type>
                           <xmpG:red>34</xmpG:red>
                           <xmpG:green>181</xmpG:green>
                           <xmpG:blue>115</xmpG:blue>
                        </rdf:li>
                        <rdf:li rdf:parseType="Resource">
                           <xmpG:swatchName>R=0 G=169 B=157</xmpG:swatchName>
                           <xmpG:mode>RGB</xmpG:mode>
                           <xmpG:type>PROCESS</xmpG:type>
                           <xmpG:red>0</xmpG:red>
                           <xmpG:green>169</xmpG:green>
                           <xmpG:blue>157</xmpG:blue>
                        </rdf:li>
                        <rdf:li rdf:parseType="Resource">
                           <xmpG:swatchName>R=41 G=171 B=226</xmpG:swatchName>
                           <xmpG:mode>RGB</xmpG:mode>
                           <xmpG:type>PROCESS</xmpG:type>
                           <xmpG:red>41</xmpG:red>
                           <xmpG:green>171</xmpG:green>
                           <xmpG:blue>226</xmpG:blue>
                        </rdf:li>
                        <rdf:li rdf:parseType="Resource">
                           <xmpG:swatchName>R=0 G=113 B=188</xmpG:swatchName>
                           <xmpG:mode>RGB</xmpG:mode>
                           <xmpG:type>PROCESS</xmpG:type>
                           <xmpG:red>0</xmpG:red>
                           <xmpG:green>113</xmpG:green>
                           <xmpG:blue>188</xmpG:blue>
                        </rdf:li>
                        <rdf:li rdf:parseType="Resource">
                           <xmpG:swatchName>R=46 G=49 B=146</xmpG:swatchName>
                           <xmpG:mode>RGB</xmpG:mode>
                           <xmpG:type>PROCESS</xmpG:type>
                           <xmpG:red>46</xmpG:red>
                           <xmpG:green>49</xmpG:green>
                           <xmpG:blue>146</xmpG:blue>
                        </rdf:li>
                        <rdf:li rdf:parseType="Resource">
                           <xmpG:swatchName>R=27 G=20 B=100</xmpG:swatchName>
                           <xmpG:mode>RGB</xmpG:mode>
                           <xmpG:type>PROCESS</xmpG:type>
                           <xmpG:red>27</xmpG:red>
                           <xmpG:green>20</xmpG:green>
                           <xmpG:blue>100</xmpG:blue>
                        </rdf:li>
                        <rdf:li rdf:parseType="Resource">
                           <xmpG:swatchName>R=102 G=45 B=145</xmpG:swatchName>
                           <xmpG:mode>RGB</xmpG:mode>
                           <xmpG:type>PROCESS</xmpG:type>
                           <xmpG:red>102</xmpG:red>
                           <xmpG:green>45</xmpG:green>
                           <xmpG:blue>145</xmpG:blue>
                        </rdf:li>
                        <rdf:li rdf:parseType="Resource">
                           <xmpG:swatchName>R=147 G=39 B=143</xmpG:swatchName>
                           <xmpG:mode>RGB</xmpG:mode>
                           <xmpG:type>PROCESS</xmpG:type>
                           <xmpG:red>147</xmpG:red>
                           <xmpG:green>39</xmpG:green>
                           <xmpG:blue>143</xmpG:blue>
                        </rdf:li>
                        <rdf:li rdf:parseType="Resource">
                           <xmpG:swatchName>R=158 G=0 B=93</xmpG:swatchName>
                           <xmpG:mode>RGB</xmpG:mode>
                           <xmpG:type>PROCESS</xmpG:type>
                           <xmpG:red>158</xmpG:red>
                           <xmpG:green>0</xmpG:green>
                           <xmpG:blue>93</xmpG:blue>
                        </rdf:li>
                        <rdf:li rdf:parseType="Resource">
                           <xmpG:swatchName>R=212 G=20 B=90</xmpG:swatchName>
                           <xmpG:mode>RGB</xmpG:mode>
                           <xmpG:type>PROCESS</xmpG:type>
                           <xmpG:red>212</xmpG:red>
                           <xmpG:green>20</xmpG:green>
                           <xmpG:blue>90</xmpG:blue>
                        </rdf:li>
                        <rdf:li rdf:parseType="Resource">
                           <xmpG:swatchName>R=237 G=30 B=121</xmpG:swatchName>
                           <xmpG:mode>RGB</xmpG:mode>
                           <xmpG:type>PROCESS</xmpG:type>
                           <xmpG:red>237</xmpG:red>
                           <xmpG:green>30</xmpG:green>
                           <xmpG:blue>121</xmpG:blue>
                        </rdf:li>
                        <rdf:li rdf:parseType="Resource">
                           <xmpG:swatchName>R=199 G=178 B=153</xmpG:swatchName>
                           <xmpG:mode>RGB</xmpG:mode>
                           <xmpG:type>PROCESS</xmpG:type>
                           <xmpG:red>199</xmpG:red>
                           <xmpG:green>178</xmpG:green>
                           <xmpG:blue>153</xmpG:blue>
                        </rdf:li>
                        <rdf:li rdf:parseType="Resource">
                           <xmpG:swatchName>R=153 G=134 B=117</xmpG:swatchName>
                           <xmpG:mode>RGB</xmpG:mode>
                           <xmpG:type>PROCESS</xmpG:type>
                           <xmpG:red>153</xmpG:red>
                           <xmpG:green>134</xmpG:green>
                           <xmpG:blue>117</xmpG:blue>
                        </rdf:li>
                        <rdf:li rdf:parseType="Resource">
                           <xmpG:swatchName>R=115 G=99 B=87</xmpG:swatchName>
                           <xmpG:mode>RGB</xmpG:mode>
                           <xmpG:type>PROCESS</xmpG:type>
                           <xmpG:red>115</xmpG:red>
                           <xmpG:green>99</xmpG:green>
                           <xmpG:blue>87</xmpG:blue>
                        </rdf:li>
                        <rdf:li rdf:parseType="Resource">
                           <xmpG:swatchName>R=83 G=71 B=65</xmpG:swatchName>
                           <xmpG:mode>RGB</xmpG:mode>
                           <xmpG:type>PROCESS</xmpG:type>
                           <xmpG:red>83</xmpG:red>
                           <xmpG:green>71</xmpG:green>
                           <xmpG:blue>65</xmpG:blue>
                        </rdf:li>
                        <rdf:li rdf:parseType="Resource">
                           <xmpG:swatchName>R=198 G=156 B=109</xmpG:swatchName>
                           <xmpG:mode>RGB</xmpG:mode>
                           <xmpG:type>PROCESS</xmpG:type>
                           <xmpG:red>198</xmpG:red>
                           <xmpG:green>156</xmpG:green>
                           <xmpG:blue>109</xmpG:blue>
                        </rdf:li>
                        <rdf:li rdf:parseType="Resource">
                           <xmpG:swatchName>R=166 G=124 B=82</xmpG:swatchName>
                           <xmpG:mode>RGB</xmpG:mode>
                           <xmpG:type>PROCESS</xmpG:type>
                           <xmpG:red>166</xmpG:red>
                           <xmpG:green>124</xmpG:green>
                           <xmpG:blue>82</xmpG:blue>
                        </rdf:li>
                        <rdf:li rdf:parseType="Resource">
                           <xmpG:swatchName>R=140 G=98 B=57</xmpG:swatchName>
                           <xmpG:mode>RGB</xmpG:mode>
                           <xmpG:type>PROCESS</xmpG:type>
                           <xmpG:red>140</xmpG:red>
                           <xmpG:green>98</xmpG:green>
                           <xmpG:blue>57</xmpG:blue>
                        </rdf:li>
                        <rdf:li rdf:parseType="Resource">
                           <xmpG:swatchName>R=117 G=76 B=36</xmpG:swatchName>
                           <xmpG:mode>RGB</xmpG:mode>
                           <xmpG:type>PROCESS</xmpG:type>
                           <xmpG:red>117</xmpG:red>
                           <xmpG:green>76</xmpG:green>
                           <xmpG:blue>36</xmpG:blue>
                        </rdf:li>
                        <rdf:li rdf:parseType="Resource">
                           <xmpG:swatchName>R=96 G=56 B=19</xmpG:swatchName>
                           <xmpG:mode>RGB</xmpG:mode>
                           <xmpG:type>PROCESS</xmpG:type>
                           <xmpG:red>96</xmpG:red>
                           <xmpG:green>56</xmpG:green>
                           <xmpG:blue>19</xmpG:blue>
                        </rdf:li>
                        <rdf:li rdf:parseType="Resource">
                           <xmpG:swatchName>R=66 G=33 B=11</xmpG:swatchName>
                           <xmpG:mode>RGB</xmpG:mode>
                           <xmpG:type>PROCESS</xmpG:type>
                           <xmpG:red>66</xmpG:red>
                           <xmpG:green>33</xmpG:green>
                           <xmpG:blue>11</xmpG:blue>
                        </rdf:li>
                     </rdf:Seq>
                  </xmpG:Colorants>
               </rdf:li>
               <rdf:li rdf:parseType="Resource">
                  <xmpG:groupName>Grays</xmpG:groupName>
                  <xmpG:groupType>1</xmpG:groupType>
                  <xmpG:Colorants>
                     <rdf:Seq>
                        <rdf:li rdf:parseType="Resource">
                           <xmpG:swatchName>R=0 G=0 B=0</xmpG:swatchName>
                           <xmpG:mode>RGB</xmpG:mode>
                           <xmpG:type>PROCESS</xmpG:type>
                           <xmpG:red>0</xmpG:red>
                           <xmpG:green>0</xmpG:green>
                           <xmpG:blue>0</xmpG:blue>
                        </rdf:li>
                        <rdf:li rdf:parseType="Resource">
                           <xmpG:swatchName>R=26 G=26 B=26</xmpG:swatchName>
                           <xmpG:mode>RGB</xmpG:mode>
                           <xmpG:type>PROCESS</xmpG:type>
                           <xmpG:red>26</xmpG:red>
                           <xmpG:green>26</xmpG:green>
                           <xmpG:blue>26</xmpG:blue>
                        </rdf:li>
                        <rdf:li rdf:parseType="Resource">
                           <xmpG:swatchName>R=51 G=51 B=51</xmpG:swatchName>
                           <xmpG:mode>RGB</xmpG:mode>
                           <xmpG:type>PROCESS</xmpG:type>
                           <xmpG:red>51</xmpG:red>
                           <xmpG:green>51</xmpG:green>
                           <xmpG:blue>51</xmpG:blue>
                        </rdf:li>
                        <rdf:li rdf:parseType="Resource">
                           <xmpG:swatchName>R=77 G=77 B=77</xmpG:swatchName>
                           <xmpG:mode>RGB</xmpG:mode>
                           <xmpG:type>PROCESS</xmpG:type>
                           <xmpG:red>77</xmpG:red>
                           <xmpG:green>77</xmpG:green>
                           <xmpG:blue>77</xmpG:blue>
                        </rdf:li>
                        <rdf:li rdf:parseType="Resource">
                           <xmpG:swatchName>R=102 G=102 B=102</xmpG:swatchName>
                           <xmpG:mode>RGB</xmpG:mode>
                           <xmpG:type>PROCESS</xmpG:type>
                           <xmpG:red>102</xmpG:red>
                           <xmpG:green>102</xmpG:green>
                           <xmpG:blue>102</xmpG:blue>
                        </rdf:li>
                        <rdf:li rdf:parseType="Resource">
                           <xmpG:swatchName>R=128 G=128 B=128</xmpG:swatchName>
                           <xmpG:mode>RGB</xmpG:mode>
                           <xmpG:type>PROCESS</xmpG:type>
                           <xmpG:red>128</xmpG:red>
                           <xmpG:green>128</xmpG:green>
                           <xmpG:blue>128</xmpG:blue>
                        </rdf:li>
                        <rdf:li rdf:parseType="Resource">
                           <xmpG:swatchName>R=153 G=153 B=153</xmpG:swatchName>
                           <xmpG:mode>RGB</xmpG:mode>
                           <xmpG:type>PROCESS</xmpG:type>
                           <xmpG:red>153</xmpG:red>
                           <xmpG:green>153</xmpG:green>
                           <xmpG:blue>153</xmpG:blue>
                        </rdf:li>
                        <rdf:li rdf:parseType="Resource">
                           <xmpG:swatchName>R=179 G=179 B=179</xmpG:swatchName>
                           <xmpG:mode>RGB</xmpG:mode>
                           <xmpG:type>PROCESS</xmpG:type>
                           <xmpG:red>179</xmpG:red>
                           <xmpG:green>179</xmpG:green>
                           <xmpG:blue>179</xmpG:blue>
                        </rdf:li>
                        <rdf:li rdf:parseType="Resource">
                           <xmpG:swatchName>R=204 G=204 B=204</xmpG:swatchName>
                           <xmpG:mode>RGB</xmpG:mode>
                           <xmpG:type>PROCESS</xmpG:type>
                           <xmpG:red>204</xmpG:red>
                           <xmpG:green>204</xmpG:green>
                           <xmpG:blue>204</xmpG:blue>
                        </rdf:li>
                        <rdf:li rdf:parseType="Resource">
                           <xmpG:swatchName>R=242 G=242 B=242</xmpG:swatchName>
                           <xmpG:mode>RGB</xmpG:mode>
                           <xmpG:type>PROCESS</xmpG:type>
                           <xmpG:red>242</xmpG:red>
                           <xmpG:green>242</xmpG:green>
                           <xmpG:blue>242</xmpG:blue>
                        </rdf:li>
                     </rdf:Seq>
                  </xmpG:Colorants>
               </rdf:li>
               <rdf:li rdf:parseType="Resource">
                  <xmpG:groupName>Web Color Group</xmpG:groupName>
                  <xmpG:groupType>1</xmpG:groupType>
                  <xmpG:Colorants>
                     <rdf:Seq>
                        <rdf:li rdf:parseType="Resource">
                           <xmpG:swatchName>R=63 G=169 B=245</xmpG:swatchName>
                           <xmpG:mode>RGB</xmpG:mode>
                           <xmpG:type>PROCESS</xmpG:type>
                           <xmpG:red>63</xmpG:red>
                           <xmpG:green>169</xmpG:green>
                           <xmpG:blue>245</xmpG:blue>
                        </rdf:li>
                        <rdf:li rdf:parseType="Resource">
                           <xmpG:swatchName>R=122 G=201 B=67</xmpG:swatchName>
                           <xmpG:mode>RGB</xmpG:mode>
                           <xmpG:type>PROCESS</xmpG:type>
                           <xmpG:red>122</xmpG:red>
                           <xmpG:green>201</xmpG:green>
                           <xmpG:blue>67</xmpG:blue>
                        </rdf:li>
                        <rdf:li rdf:parseType="Resource">
                           <xmpG:swatchName>R=255 G=147 B=30</xmpG:swatchName>
                           <xmpG:mode>RGB</xmpG:mode>
                           <xmpG:type>PROCESS</xmpG:type>
                           <xmpG:red>255</xmpG:red>
                           <xmpG:green>147</xmpG:green>
                           <xmpG:blue>30</xmpG:blue>
                        </rdf:li>
                        <rdf:li rdf:parseType="Resource">
                           <xmpG:swatchName>R=255 G=29 B=37</xmpG:swatchName>
                           <xmpG:mode>RGB</xmpG:mode>
                           <xmpG:type>PROCESS</xmpG:type>
                           <xmpG:red>255</xmpG:red>
                           <xmpG:green>29</xmpG:green>
                           <xmpG:blue>37</xmpG:blue>
                        </rdf:li>
                        <rdf:li rdf:parseType="Resource">
                           <xmpG:swatchName>R=255 G=123 B=172</xmpG:swatchName>
                           <xmpG:mode>RGB</xmpG:mode>
                           <xmpG:type>PROCESS</xmpG:type>
                           <xmpG:red>255</xmpG:red>
                           <xmpG:green>123</xmpG:green>
                           <xmpG:blue>172</xmpG:blue>
                        </rdf:li>
                        <rdf:li rdf:parseType="Resource">
                           <xmpG:swatchName>R=189 G=204 B=212</xmpG:swatchName>
                           <xmpG:mode>RGB</xmpG:mode>
                           <xmpG:type>PROCESS</xmpG:type>
                           <xmpG:red>189</xmpG:red>
                           <xmpG:green>204</xmpG:green>
                           <xmpG:blue>212</xmpG:blue>
                        </rdf:li>
                     </rdf:Seq>
                  </xmpG:Colorants>
               </rdf:li>
            </rdf:Seq>
         </xmpTPg:SwatchGroups>
      </rdf:Description>
      <rdf:Description rdf:about=""
            xmlns:pdf="http://ns.adobe.com/pdf/1.3/">
         <pdf:Producer>Adobe PDF library 10.01</pdf:Producer>
      </rdf:Description>
   </rdf:RDF>
</x:xmpmeta>
                                                                                                    
                                                                                                    
                                                                                                    
                                                                                                    
                                                                                                    
                                                                                                    
                                                                                                    
                                                                                                    
                                                                                                    
                                                                                                    
                                                                                                    
                                                                                                    
                                                                                                    
                                                                                                    
                                                                                                    
                                                                                                    
                                                                                                    
                                                                                                    
                                                                                                    
                                                                                                    
                           
<?xpacket end="w"?>
	</metadata>
<pattern  x="-58.022" y="-31.024" width="16" height="28" patternUnits="userSpaceOnUse" id="New_Pattern_2" viewBox="4 -32 16 28" overflow="visible">
	<g>
		<polygon fill="none" points="4,-32 20,-32 20,-4 4,-4 		"/>
		<path fill="#001F56" d="M24-4c0,2.209-1.791,4-4,4s-4-1.791-4-4s1.791-4,4-4S24-6.209,24-4z"/>
		<path fill="#001F56" d="M8-4c0,2.209-1.791,4-4,4S0-1.791,0-4s1.791-4,4-4S8-6.209,8-4z"/>
		<path fill="#001F56" d="M16-18c0,2.209-1.791,4-4,4s-4-1.791-4-4s1.791-4,4-4S16-20.209,16-18z"/>
		<path fill="#001F56" d="M24-32c0,2.209-1.791,4-4,4s-4-1.791-4-4s1.791-4,4-4S24-34.209,24-32z"/>
		<path fill="#001F56" d="M8-32c0,2.209-1.791,4-4,4s-4-1.791-4-4s1.791-4,4-4S8-34.209,8-32z"/>
	</g>
</pattern>
<g id="Layer_1">
</g>
<g id="Layer_2">
	<g opacity="0.4">
		<polygon points="1051.968,338.079 1051.558,338.318 1051.145,338.079 1050.734,338.318 1050.321,338.079 1049.912,338.317 
			1049.498,338.079 1049.087,338.317 1048.675,338.079 1048.265,338.318 1047.852,338.079 1047.441,338.318 1047.028,338.079 
			1046.618,338.317 1046.205,338.079 1045.794,338.318 1045.382,338.08 1044.972,338.318 1044.559,338.079 1044.148,338.318 
			1043.735,338.079 1043.325,338.317 1042.911,338.079 1042.501,338.317 1042.088,338.079 1041.678,338.318 1041.265,338.079 
			1040.854,338.318 1040.441,338.079 1040.031,338.318 1039.618,338.079 1039.208,338.317 1038.795,338.079 1038.385,338.318 
			1037.971,338.079 1037.561,338.318 1037.148,338.079 1036.737,338.318 1036.325,338.079 1035.914,338.318 1035.501,338.079 
			1035.091,338.318 1034.678,338.079 1034.268,338.318 1033.855,338.079 1033.444,338.318 1033.031,338.079 1032.621,338.318 
			1032.208,338.079 1031.798,338.318 1031.385,338.079 1030.974,338.318 1030.562,338.079 1030.151,338.318 1029.738,338.079 
			1029.328,338.318 1028.915,338.079 1028.504,338.318 1028.091,338.079 1027.681,338.318 1027.269,338.079 1026.858,338.318 
			1026.445,338.079 1026.034,338.318 1025.622,338.079 1025.211,338.318 1024.798,338.079 1024.388,338.318 1023.975,338.079 
			1023.564,338.318 1023.151,338.079 1022.741,338.318 1022.328,338.079 1021.918,338.318 1021.505,338.079 1021.094,338.318 
			1020.682,338.079 1020.271,338.318 1019.858,338.079 1019.448,338.318 1019.034,338.079 1018.625,338.318 1018.211,338.079 
			1017.801,338.317 1017.389,338.079 1016.978,338.318 1016.565,338.079 1016.154,338.318 1015.742,338.079 1015.331,338.318 
			1014.918,338.079 1014.508,338.318 1014.095,338.079 1013.685,338.318 1013.271,338.079 1012.861,338.318 1012.448,338.079 
			1012.038,338.317 1011.625,338.079 1011.215,338.318 1010.802,338.079 1010.392,338.318 1009.978,338.079 1009.567,338.317 
			1009.154,338.079 1008.745,338.318 1008.332,338.079 1007.921,338.318 1007.508,338.079 1007.098,338.318 1006.685,338.079 
			1006.274,338.318 1005.861,338.079 1005.451,338.318 1005.038,338.079 1004.628,338.318 1004.215,338.079 1003.805,338.318 
			1003.392,338.079 1002.981,338.318 1002.568,338.079 1002.157,338.318 1001.744,338.079 1001.334,338.318 1000.921,338.079 
			1000.51,338.318 1000.098,338.079 999.687,338.318 999.274,338.079 998.864,338.317 998.452,338.079 998.042,338.318 
			997.628,338.079 997.218,338.318 996.805,338.079 996.394,338.318 995.981,338.079 995.57,338.318 995.158,338.079 
			994.747,338.318 994.334,338.079 993.924,338.318 993.511,338.079 993.102,338.317 992.688,338.079 992.278,338.318 
			991.864,338.079 991.454,338.318 991.042,338.079 990.63,338.318 990.218,338.079 989.808,338.318 989.395,338.079 
			988.984,338.318 988.571,338.079 988.161,338.318 987.748,338.079 987.337,338.318 986.925,338.079 986.514,338.318 
			986.102,338.079 985.69,338.318 985.278,338.079 984.867,338.318 984.455,338.079 984.044,338.318 983.632,338.079 
			983.221,338.318 982.808,338.079 982.397,338.318 981.985,338.079 981.574,338.318 981.162,338.079 980.751,338.318 
			980.338,338.079 979.928,338.318 979.515,338.079 979.104,338.318 978.691,338.079 978.281,338.318 977.868,338.079 
			977.458,338.318 977.045,338.079 976.634,338.318 976.221,338.079 975.811,338.318 975.397,338.079 974.987,338.317 
			974.575,338.079 974.165,338.318 973.752,338.079 973.341,338.318 972.928,338.079 972.518,338.318 972.105,338.079 
			971.694,338.318 971.281,338.079 970.87,338.318 970.458,338.079 970.047,338.318 969.635,338.079 969.225,338.317 
			968.812,338.079 968.401,338.318 967.988,338.079 967.578,338.318 967.165,338.079 966.754,338.318 966.341,338.079 
			965.931,338.318 965.518,338.079 965.107,338.318 964.695,338.079 964.284,338.318 963.871,338.079 963.461,338.317 
			963.048,338.079 962.638,338.318 962.225,338.079 961.814,338.318 961.401,338.079 960.991,338.318 960.578,338.079 
			544.771,579.72 628.474,628.045 628.884,627.807 629.297,628.045 629.707,627.807 630.12,628.045 630.53,627.807 630.944,628.045 
			631.354,627.807 631.767,628.045 632.177,627.807 632.59,628.045 633.001,627.807 633.414,628.045 633.824,627.807 
			634.237,628.045 634.647,627.807 635.06,628.045 635.471,627.807 635.884,628.045 636.294,627.807 636.707,628.045 
			637.117,627.807 637.53,628.045 637.941,627.807 638.354,628.045 638.764,627.807 639.177,628.045 639.587,627.807 
			640.001,628.045 640.411,627.807 640.823,628.045 641.234,627.807 641.646,628.045 642.057,627.807 642.471,628.045 
			642.881,627.807 643.293,628.045 643.704,627.807 644.117,628.045 644.527,627.807 644.94,628.045 645.351,627.807 
			645.763,628.045 646.174,627.807 646.587,628.045 646.998,627.807 647.411,628.045 647.821,627.807 648.234,628.045 
			648.644,627.807 649.057,628.045 649.467,627.807 649.879,628.045 650.291,627.807 650.704,628.045 651.114,627.807 
			651.527,628.045 651.938,627.807 652.351,628.045 652.761,627.807 653.174,628.045 653.584,627.807 653.998,628.045 
			654.408,627.807 654.82,628.045 655.231,627.807 655.644,628.045 656.054,627.807 656.466,628.045 656.876,627.807 
			657.291,628.045 657.701,627.807 658.114,628.045 658.524,627.807 658.937,628.045 659.348,627.807 659.761,628.045 
			660.171,627.807 660.584,628.045 660.994,627.807 661.407,628.045 661.817,627.807 662.23,628.045 662.641,627.807 
			663.054,628.045 663.465,627.807 663.877,628.045 664.288,627.807 664.701,628.045 665.11,627.807 665.523,628.045 
			665.934,627.807 666.348,628.045 666.758,627.807 667.17,628.045 667.581,627.807 667.994,628.045 668.405,627.807 
			668.817,628.045 669.228,627.807 669.641,628.045 670.051,627.807 670.464,628.045 670.875,627.807 671.287,628.045 
			671.698,627.807 672.11,628.045 672.521,627.807 672.934,628.045 673.345,627.807 673.757,628.045 674.167,627.807 
			674.581,628.045 674.991,627.807 675.403,628.045 675.814,627.807 676.227,628.045 676.638,627.807 677.05,628.045 
			677.461,627.807 677.874,628.045 678.284,627.807 678.697,628.045 679.107,627.807 679.521,628.045 679.931,627.807 
			680.343,628.045 680.754,627.807 681.167,628.045 681.578,627.807 681.99,628.045 682.4,627.807 682.813,628.045 683.224,627.807 
			683.637,628.045 684.047,627.807 684.46,628.045 684.871,627.807 685.283,628.045 685.694,627.807 686.107,628.045 
			686.518,627.807 686.931,628.045 687.34,627.807 687.753,628.045 688.164,627.807 688.577,628.045 688.987,627.807 689.4,628.045 
			689.811,627.807 690.223,628.045 690.634,627.807 691.047,628.045 691.457,627.807 691.87,628.045 692.28,627.807 
			692.693,628.045 693.104,627.807 693.517,628.045 693.927,627.807 694.34,628.045 694.75,627.807 695.164,628.045 
			695.574,627.807 695.987,628.045 696.397,627.807 696.81,628.045 697.22,627.807 697.634,628.045 698.044,627.807 
			698.457,628.045 698.868,627.807 699.28,628.045 699.691,627.807 700.104,628.045 700.514,627.807 700.927,628.045 
			701.337,627.807 701.75,628.045 702.161,627.807 702.574,628.045 702.984,627.807 703.397,628.045 703.808,627.807 
			704.22,628.045 704.631,627.807 705.044,628.045 705.454,627.807 705.867,628.045 706.277,627.807 706.69,628.045 
			707.101,627.807 707.514,628.045 707.924,627.807 708.337,628.045 708.747,627.807 709.16,628.045 709.571,627.807 
			709.984,628.045 710.394,627.807 710.807,628.045 711.218,627.807 711.63,628.045 712.04,627.807 712.454,628.045 
			712.864,627.807 713.277,628.045 713.688,627.807 714.101,628.045 714.511,627.807 714.924,628.045 715.334,627.807 
			715.747,628.045 716.158,627.807 716.571,628.045 716.981,627.807 717.394,628.045 717.804,627.807 718.217,628.045 
			718.627,627.807 719.041,628.045 719.451,627.807 719.864,628.045 1006.96,461.204 1128.527,531.392 795.886,724.701 
			879.595,773.031 880.006,772.792 880.419,773.031 880.83,772.792 881.242,773.031 881.652,772.792 882.065,773.031 
			882.476,772.792 882.889,773.031 883.299,772.792 883.712,773.031 884.123,772.792 884.535,773.031 884.946,772.792 
			885.359,773.031 885.77,772.793 886.182,773.031 886.592,772.792 887.005,773.031 887.416,772.792 887.829,773.031 
			888.239,772.792 888.652,773.031 889.063,772.792 889.476,773.031 889.886,772.793 890.299,773.031 890.709,772.792 
			891.122,773.031 891.532,772.792 891.945,773.031 892.356,772.792 892.769,773.031 893.18,772.792 893.592,773.031 
			894.002,772.793 894.415,773.031 894.826,772.792 895.239,773.031 895.649,772.792 896.063,773.031 896.473,772.792 
			896.886,773.031 897.296,772.792 897.709,773.031 898.119,772.793 898.532,773.031 898.942,772.792 899.356,773.031 
			899.766,772.792 900.179,773.031 900.589,772.792 901.002,773.031 901.413,772.792 901.826,773.031 902.236,772.793 
			902.649,773.031 903.06,772.792 903.472,773.031 903.883,772.792 904.296,773.031 904.706,772.792 905.119,773.031 
			905.529,772.793 905.941,773.031 906.352,772.792 906.766,773.031 907.176,772.792 907.589,773.031 907.999,772.792 
			908.413,773.031 908.823,772.792 909.236,773.031 909.646,772.793 910.059,773.031 910.469,772.792 910.882,773.031 
			911.293,772.792 911.706,773.031 912.116,772.792 912.529,773.031 912.94,772.792 913.353,773.031 913.763,772.793 
			914.176,773.031 914.586,772.792 914.999,773.031 915.41,772.792 915.823,773.031 916.233,772.792 916.646,773.031 
			917.056,772.792 917.469,773.031 917.879,772.793 918.292,773.031 918.703,772.792 919.116,773.031 919.526,772.792 
			919.939,773.031 920.35,772.792 920.763,773.031 921.173,772.792 921.586,773.031 921.996,772.792 922.409,773.031 
			922.82,772.792 923.232,773.031 923.643,772.792 924.056,773.031 924.466,772.792 924.879,773.031 925.29,772.792 
			925.703,773.031 926.113,772.792 926.526,773.031 926.936,772.792 927.349,773.031 927.76,772.792 928.172,773.031 
			928.583,772.792 928.996,773.031 929.406,772.792 929.819,773.031 930.229,772.792 930.643,773.031 931.053,772.792 
			931.466,773.031 931.876,772.792 932.289,773.031 932.7,772.792 933.113,773.031 933.523,772.793 933.936,773.031 
			934.346,772.792 934.759,773.031 935.169,772.792 935.583,773.031 935.993,772.792 936.405,773.031 936.816,772.792 
			937.229,773.031 937.64,772.793 938.052,773.031 938.463,772.792 938.875,773.031 939.286,772.792 939.699,773.031 
			940.109,772.792 940.522,773.031 940.933,772.792 941.346,773.031 941.756,772.793 942.168,773.031 942.58,772.792 
			942.992,773.031 943.402,772.792 943.816,773.031 944.227,772.792 944.64,773.031 945.049,772.793 945.462,773.031 
			945.873,772.792 946.285,773.031 946.696,772.792 947.109,773.031 947.52,772.792 947.933,773.031 948.343,772.792 
			948.756,773.031 949.167,772.792 949.579,773.031 949.99,772.792 950.403,773.031 950.813,772.793 951.226,773.031 
			951.637,772.792 952.049,773.031 952.459,772.792 952.873,773.031 953.283,772.792 953.695,773.031 954.106,772.792 
			954.52,773.031 954.93,772.793 955.342,773.031 955.753,772.792 956.166,773.031 956.576,772.792 956.989,773.031 
			957.399,772.792 957.813,773.031 958.224,772.792 958.636,773.031 959.046,772.793 959.459,773.031 959.87,772.792 
			960.282,773.031 960.692,772.792 961.106,773.031 961.516,772.793 961.929,773.031 962.339,772.792 962.752,773.031 
			963.163,772.792 963.576,773.031 963.987,772.792 964.399,773.031 964.81,772.792 965.223,773.031 965.633,772.792 
			966.046,773.031 966.456,772.793 966.869,773.031 967.279,772.792 967.692,773.031 968.103,772.792 968.516,773.031 
			968.926,772.793 969.339,773.031 969.749,772.792 970.163,773.031 970.573,772.792 970.986,773.031 1258.082,606.188 
			1379.643,676.372 1047,869.683 1130.711,918.013 1131.122,917.774 1131.534,918.013 1131.945,917.774 1132.357,918.013 
			1132.768,917.774 1133.181,918.013 1133.591,917.774 1134.004,918.013 1134.415,917.774 1134.827,918.013 1135.238,917.774 
			1135.65,918.013 1136.062,917.774 1136.474,918.013 1136.885,917.774 1137.298,918.013 1137.708,917.774 1138.121,918.013 
			1138.531,917.774 1138.944,918.013 1139.354,917.774 1139.768,918.013 1140.178,917.774 1140.591,918.013 1141.001,917.774 
			1141.414,918.013 1141.824,917.774 1142.237,918.013 1142.647,917.774 1143.061,918.013 1143.471,917.774 1143.884,918.013 
			1144.294,917.774 1144.707,918.013 1145.118,917.774 1145.53,918.013 1145.941,917.774 1146.354,918.013 1146.765,917.774 
			1147.177,918.013 1147.587,917.774 1148,918.013 1148.411,917.774 1148.824,918.013 1149.234,917.774 1149.647,918.013 
			1150.058,917.774 1150.471,918.013 1150.881,917.774 1151.294,918.013 1151.704,917.774 1152.117,918.013 1152.527,917.774 
			1152.941,918.013 1153.351,917.774 1153.764,918.013 1154.174,917.774 1154.587,918.013 1154.997,917.774 1155.411,918.013 
			1155.821,917.774 1156.234,918.013 1156.644,917.774 1157.058,918.013 1157.467,917.774 1157.881,918.013 1158.291,917.774 
			1158.704,918.013 1159.114,917.774 1159.527,918.013 1159.938,917.774 1160.351,918.013 1160.761,917.774 1161.175,918.013 
			1161.585,917.774 1161.998,918.013 1162.409,917.774 1162.821,918.013 1163.231,917.774 1163.645,918.013 1164.055,917.774 
			1164.468,918.013 1164.878,917.774 1165.291,918.013 1165.702,917.774 1166.114,918.013 1166.525,917.774 1166.938,918.013 
			1167.349,917.774 1167.761,918.013 1168.172,917.774 1168.584,918.013 1168.995,917.774 1169.408,918.013 1169.818,917.774 
			1170.231,918.013 1170.642,917.774 1171.054,918.013 1171.465,917.774 1171.878,918.013 1172.288,917.774 1172.701,918.013 
			1173.111,917.774 1173.524,918.013 1173.935,917.774 1174.348,918.013 1174.758,917.774 1175.171,918.013 1175.582,917.774 
			1175.994,918.013 1176.405,917.774 1176.818,918.013 1177.229,917.774 1177.641,918.013 1178.051,917.774 1178.464,918.013 
			1178.875,917.774 1179.288,918.013 1179.698,917.774 1180.111,918.013 1180.521,917.774 1180.934,918.013 1181.345,917.774 
			1181.758,918.013 1182.168,917.774 1182.581,918.013 1182.991,917.774 1183.404,918.013 1183.815,917.774 1184.228,918.013 
			1184.638,917.774 1185.051,918.013 1185.461,917.774 1185.874,918.013 1186.285,917.774 1186.697,918.013 1187.108,917.774 
			1187.521,918.013 1187.931,917.774 1188.345,918.013 1188.755,917.774 1189.168,918.013 1189.578,917.774 1189.991,918.013 
			1190.401,917.774 1190.814,918.013 1191.225,917.774 1191.638,918.013 1192.048,917.774 1192.46,918.013 1192.871,917.774 
			1193.284,918.013 1193.695,917.774 1194.107,918.013 1194.518,917.774 1194.931,918.013 1195.341,917.774 1195.754,918.013 
			1196.165,917.774 1196.577,918.013 1196.988,917.774 1197.4,918.013 1197.811,917.774 1198.224,918.013 1198.635,917.774 
			1199.048,918.013 1199.458,917.774 1199.871,918.013 1200.281,917.774 1200.694,918.013 1201.104,917.774 1201.518,918.013 
			1201.928,917.774 1202.341,918.013 1202.751,917.774 1203.165,918.013 1203.574,917.774 1203.988,918.013 1204.397,917.774 
			1204.811,918.013 1205.221,917.774 1205.634,918.013 1206.045,917.774 1206.458,918.013 1206.869,917.774 1207.282,918.013 
			1207.692,917.774 1208.105,918.013 1208.515,917.774 1208.928,918.013 1209.339,917.774 1209.751,918.013 1210.162,917.774 
			1210.575,918.013 1210.985,917.774 1211.398,918.013 1211.809,917.774 1212.222,918.013 1212.632,917.774 1213.045,918.013 
			1213.455,917.774 1213.868,918.013 1214.279,917.774 1214.691,918.013 1215.102,917.774 1215.514,918.013 1215.924,917.774 
			1216.337,918.013 1216.747,917.774 1217.161,918.013 1217.571,917.774 1217.984,918.013 1218.394,917.774 1218.807,918.013 
			1219.217,917.774 1219.63,918.013 1220.041,917.774 1220.454,918.013 1220.864,917.774 1221.278,918.013 1221.688,917.774 
			1222.102,918.013 1637.909,676.371 		"/>
		<path d="M2223.851,1014.663l-0.41,0.239l-0.413-0.239l-0.411,0.239l-0.412-0.239l-0.411,0.239l-0.413-0.239l-0.41,0.239
			l-0.412-0.239l-0.411,0.239l-0.413-0.239l-0.41,0.239l-0.413-0.239l-0.41,0.239l-0.413-0.239l-0.41,0.239l-0.413-0.239
			l-0.411,0.239l-0.412-0.239l-0.41,0.239l-0.414-0.239l-0.41,0.239l-0.413-0.239l-0.41,0.239l-0.413-0.239l-0.409,0.239
			l-0.413-0.239l-0.41,0.239l-0.414-0.239l-0.41,0.239l-0.412-0.239l-0.41,0.239l-0.414-0.239l-0.41,0.239l-0.412-0.239
			l-0.411,0.239l-0.413-0.239l-0.41,0.239l-0.412-0.239l-0.411,0.239l-0.413-0.239l-0.41,0.239l-0.413-0.239l-0.411,0.239
			l-0.412-0.239l-0.41,0.239l-0.414-0.239l-0.41,0.239l-0.414-0.239l-0.41,0.239l-0.412-0.239l-0.41,0.239l-0.412-0.239
			l-0.411,0.239l-0.413-0.239l-0.41,0.239l-0.413-0.239l-0.409,0.239l-0.414-0.239l-0.41,0.239l-0.413-0.239l-0.409,0.239
			l-0.413-0.239l-0.411,0.239l-0.412-0.239l-0.412,0.239l-0.412-0.239l-0.41,0.239l-0.414-0.239l-0.409,0.239l-0.413-0.239
			l-0.41,0.239l-0.414-0.239l-0.411,0.239l-0.413-0.239l-0.41,0.239l-0.412-0.239l-0.41,0.239l-0.414-0.239l-0.41,0.239
			l-0.413-0.239l-0.409,0.239l-0.413-0.239l-0.411,0.239l-0.412-0.239l-0.412,0.239l-0.412-0.239l-0.41,0.239l-0.414-0.239
			l-0.409,0.239l-0.413-0.239l-0.41,0.239l-0.413-0.239l-0.41,0.239l-0.413-0.239l-0.41,0.239l-0.413-0.239l-0.411,0.239
			l-0.412-0.239l-0.41,0.239l-0.414-0.239l-0.41,0.239l-0.412-0.239l-0.411,0.239l-0.413-0.239l-0.41,0.239l-0.412-0.239
			l-0.411,0.239l-0.413-0.239l-0.41,0.239l-0.413-0.239l-0.411,0.239l-0.412-0.239l-0.41,0.239l-0.412-0.239l-0.412,0.239
			l-0.412-0.239l-0.41,0.239l-0.412-0.239l-0.412,0.239l-0.412-0.239l-0.41,0.239l-0.414-0.239l-0.41,0.239l-0.412-0.239
			l-0.41,0.239l-0.413-0.239l-0.411,0.239l-0.412-0.239l-0.41,0.239l-0.413-0.239l-0.411,0.239l-0.412-0.239l-0.411,0.239
			l-0.413-0.239l-0.412,0.239l-0.412-0.239l-0.41,0.239l-0.412-0.239l-0.412,0.239l-0.412-0.239l-0.41,0.239l-0.414-0.239
			l-0.408,0.239l-0.413-0.239l-0.411,0.239l-0.412-0.239l-0.411,0.239l-0.413-0.239l-0.41,0.239l-0.412-0.239l-0.411,0.239
			l-0.413-0.239l-0.409,0.239l-0.413-0.239l-0.41,0.239l-0.414-0.239l-0.41,0.239l-0.412-0.239l-0.412,0.239l-0.412-0.239
			l-0.41,0.239l-0.414-0.239l-0.41,0.239l-0.413-0.239l-0.411,0.239l-0.412-0.239l-0.41,0.239l-0.414-0.239l-0.41,0.239
			l-0.412-0.239l-0.411,0.239l-0.413-0.239l-0.409,0.239l-0.413-0.239l-0.41,0.239l-0.414-0.239l-0.41,0.239l-0.412-0.239
			l-0.412,0.239l-0.412-0.239l-0.41,0.239l-0.412-0.239l-0.411,0.239l-0.413-0.239l-0.41,0.239l-0.412-0.239l-0.411,0.239
			l-0.413-0.239l-0.41,0.239l-0.413-0.239l-0.411,0.239l-0.412-0.239l-0.41,0.239l-0.413-0.239l-0.411,0.239l-0.412-0.239
			l-0.41,0.239l-0.413-0.239l-0.411,0.239l-0.412-0.239l-0.411,0.239l-0.413-0.239l-0.41,0.239l-0.413-0.239l-0.409,0.239
			l-0.414-0.239l-0.41,0.239l-0.413-0.239l-0.409,0.239l-0.413-0.239l-0.411,0.239l-0.412-0.239l-0.412,0.239l-0.412-0.239
			l-0.41,0.239l-0.414-0.239l-0.409,0.239l-0.413-0.239l-0.41,0.239l-0.413-0.239l-0.41,0.239l-0.413-0.239l-415.808,241.641
			l418.527,241.638l0.411-0.239l0.412,0.239l0.41-0.239l0.413,0.239l0.411-0.239l0.412,0.239l0.41-0.239l0.413,0.239l0.411-0.239
			l0.412,0.239l0.411-0.239l0.413,0.239l0.41-0.239l0.413,0.239l0.409-0.237l0.414,0.238l0.411-0.238l0.412,0.237l0.409-0.239
			l0.414,0.239l0.41-0.239l0.412,0.239l0.412-0.239l0.412,0.239l0.411-0.239l0.413,0.239l0.41-0.239l0.412,0.239l0.41-0.239
			l0.414,0.239l0.409-0.239l0.413,0.239l0.41-0.239l0.413,0.239l0.411-0.239l0.412,0.239l0.412-0.239l0.412,0.239l0.41-0.239
			l0.412,0.239l0.411-0.239l0.413,0.239l0.41-0.239l0.412,0.239l0.411-0.239l0.413,0.239l0.41-0.239l0.413,0.239l0.411-0.239
			l0.412,0.239l0.41-0.239l0.413,0.239l0.411-0.239l0.412,0.239l0.41-0.239l0.412,0.239l0.412-0.239l0.412,0.239l0.411-0.239
			l0.413,0.239l0.41-0.239l0.413,0.239l0.409-0.239l0.414,0.239l0.41-0.239l0.412,0.239l0.41-0.239l0.413,0.239l0.411-0.239
			l0.412,0.239l0.412-0.239l0.412,0.239l0.41-0.239l0.414,0.239l0.409-0.239l0.413,0.239l0.41-0.239l0.413,0.239l0.41-0.239
			l0.413,0.239l0.41-0.239l0.413,0.239l0.411-0.239l0.412,0.239l0.411-0.239l0.413,0.239l0.41-0.239l0.412,0.239l0.411-0.239
			l0.413,0.239l0.412-0.239l0.412,0.239l0.41-0.239l0.414,0.239l0.409-0.239l0.413,0.239l0.41-0.239l0.413,0.239l0.41-0.239
			l0.413,0.239l0.41-0.239l0.413,0.239l0.411-0.239l0.412,0.239l0.411-0.239l0.413,0.239l0.41-0.239l0.412,0.239l0.411-0.239
			l0.413,0.239l0.41-0.239l0.412,0.239l0.411-0.239l0.413,0.239l0.41-0.239l0.413,0.239l0.411-0.239l0.412,0.239l0.41-0.239
			l0.412,0.239l0.412-0.239l0.412,0.239l0.41-0.239l0.412,0.239l0.411-0.239l0.413,0.239l0.41-0.239l0.413,0.239l0.411-0.239
			l0.412,0.239l0.41-0.239l0.413,0.239l0.411-0.239l0.412,0.239l0.41-0.239l0.413,0.239l0.411-0.239l0.412,0.239l0.411-0.239
			l0.413,0.239l0.41-0.239l0.413,0.239l0.41-0.239l0.413,0.239l0.41-0.239l0.413,0.239l0.409-0.239l0.414,0.239l0.41-0.239
			l0.412,0.239l0.412-0.239l0.412,0.239l0.411-0.239l0.413,0.239l0.41-0.239l0.412,0.239l0.41-0.239l0.414,0.239l0.409-0.239
			l0.413,0.239l0.41-0.239l0.415,0.239l0.41-0.239l0.413,0.239l0.41-0.239l0.413,0.239l0.409-0.239l0.414,0.239l0.41-0.239
			l0.412,0.239l0.412-0.239l0.412,0.239l0.411-0.239l0.413,0.239l0.41-0.239l0.412,0.239l0.41-0.239l0.414,0.239l0.409-0.239
			l0.413,0.239l0.41-0.239l0.413,0.239l0.411-0.239l0.412,0.239l0.412-0.239l0.412,0.239l0.41-0.239l0.412,0.239l0.411-0.239
			l0.413,0.239l0.41-0.239l0.412,0.239l0.411-0.239l0.413,0.239l0.41-0.239l0.413,0.239l0.411-0.239l0.412,0.239l0.41-0.239
			l0.413,0.239l0.409-0.237l0.414,0.237l0.409-0.239l0.413,0.239l0.41-0.237l0.414,0.238l0.411-0.238l0.413,0.237l0.41-0.239
			l0.413,0.239l0.409-0.239l0.414,0.239l0.41-0.239l0.412,0.239l0.41-0.239l0.413,0.239l0.411-0.239l0.412,0.239l0.41-0.237
			l0.414,0.238l0.41-0.238l0.414,0.237l249.48-144.983l-334.824-193.312l37.613-21.858l288.979,166.844l0.412-0.24l0.412,0.24
			l0.41-0.24l0.414,0.24l0.409-0.24l0.413,0.24l0.41-0.24l0.413,0.24l0.411-0.24l0.414,0.24l0.408-0.24l0.413,0.24l0.411-0.24
			l0.412,0.24l0.411-0.24l0.413,0.24l0.41-0.24l0.412,0.24l0.411-0.24l0.413,0.24l0.41-0.24l0.413,0.24l0.41-0.24l0.413,0.24
			l0.41-0.24l0.413,0.24l0.411-0.24l0.412,0.24l0.41-0.24l0.414,0.24l0.41-0.24l0.412,0.24l0.411-0.24l0.413,0.24l0.41-0.24
			l0.412,0.24l0.41-0.24l0.414,0.24l0.41-0.24l0.412,0.24l0.41-0.24l0.414,0.24l0.41-0.24l0.412,0.24l0.412-0.24l0.412,0.24
			l0.41-0.24l0.414,0.24l0.409-0.24l0.413,0.24l0.41-0.24l0.413,0.24l0.41-0.24l0.413,0.24l0.41-0.24l0.413,0.24l0.411-0.24
			l0.414,0.24l0.408-0.24l0.413,0.24l0.411-0.24l0.413,0.24l0.41-0.24l0.413,0.24l0.41-0.24l0.413,0.24l0.41-0.24l0.413,0.24
			l0.41-0.24l0.413,0.24l0.409-0.24l0.415,0.24l0.409-0.24l0.412,0.24l0.412-0.24l0.413,0.24l0.411-0.24l0.412,0.24l0.409-0.24
			l0.413,0.24l0.41-0.24l0.414,0.24l0.409-0.24l0.413,0.24l0.41-0.24l0.414,0.24l0.411-0.24l0.413,0.24l0.41-0.24l0.413,0.24
			l0.409-0.24l0.413,0.24l0.41-0.24l0.413,0.24l0.41-0.24l0.414,0.24l0.41-0.24l0.412,0.24l0.411-0.24l0.413,0.24l0.41-0.24
			l0.413,0.24l0.409-0.24l0.412,0.24l0.412-0.24l0.413,0.24l0.411-0.24l0.412,0.24l0.41-0.24l0.414,0.24l0.41-0.24l0.412,0.24
			l0.411-0.24l0.413,0.24l0.41-0.24l0.412,0.24l0.411-0.24l0.413,0.24l0.41-0.24l0.413,0.24l0.409-0.24l0.414,0.24l0.41-0.24
			l0.412,0.24l0.412-0.24l0.412,0.24l0.41-0.24l0.412,0.24l0.412-0.24l0.412,0.24l0.41-0.24l0.414,0.24l0.41-0.24l0.412,0.24
			l0.41-0.24l0.413,0.24l0.411-0.24l0.412,0.24l0.41-0.24l0.413,0.24l0.411-0.24l0.414,0.24l0.409-0.24l0.413,0.24l0.41-0.24
			l0.413,0.24l0.41-0.24l0.413,0.24l0.41-0.24l0.413,0.24l0.41-0.24l0.415,0.24l0.408-0.24l0.413,0.24l0.411-0.24l0.413,0.24
			l0.411-0.24l0.412,0.24l0.41-0.24l0.412,0.24l0.411-0.24l0.413,0.24l0.41-0.24l0.412,0.24l0.41-0.24l0.414,0.24l0.411-0.24
			l0.413,0.24l0.41-0.24l0.413,0.24l0.41-0.24l0.413,0.24l0.41-0.24l0.412,0.24l0.41-0.24l0.414,0.24l0.409-0.24l0.413,0.24
			l0.41-0.24l0.414,0.24l0.411-0.24l0.413,0.24l0.41-0.24l0.412,0.24l0.41-0.24l0.414,0.24l0.408-0.24l0.413,0.24l0.411-0.24
			l0.414,0.24l0.41-0.24l0.412,0.24l0.412-0.24l0.412,0.24l0.41-0.24l0.412,0.24l0.411-0.24l0.413,0.24l0.41-0.24l0.413,0.24
			l0.409-0.24l0.412,0.24l0.412-0.24l0.413,0.24l0.411-0.24l0.412,0.24l0.41-0.24l0.413,0.24l0.411-0.24l0.412,0.24l0.409-0.24
			l0.413,0.24l0.41-0.24l0.415,0.24l0.41-0.24l0.413,0.24l0.41-0.24l0.413,0.24l0.409-0.238l0.413,0.238l0.411-0.238l0.412,0.238
			l83.167-48.332L2223.851,1014.663z M2217.794,1352.954l-37.619,21.863l-205.271-118.514l37.619-21.861L2217.794,1352.954z"/>
		<polygon points="545.459,531.155 545.872,531.394 546.282,531.155 546.695,531.394 547.105,531.155 547.519,531.394 
			547.929,531.155 548.341,531.394 548.751,531.155 549.165,531.394 549.575,531.155 549.988,531.394 550.398,531.155 
			550.812,531.394 551.222,531.155 551.635,531.394 552.045,531.155 552.458,531.394 968.266,289.753 884.556,241.423 
			884.145,241.662 883.732,241.423 883.321,241.662 882.909,241.423 882.499,241.662 882.085,241.423 881.676,241.661 
			881.262,241.422 880.851,241.661 880.439,241.423 880.028,241.662 879.616,241.423 879.204,241.662 878.792,241.423 
			878.382,241.662 877.969,241.423 877.559,241.662 877.146,241.423 876.735,241.662 876.322,241.423 875.912,241.661 
			875.499,241.422 875.087,241.661 874.675,241.423 874.265,241.661 873.852,241.423 873.442,241.662 873.028,241.423 
			872.619,241.661 872.206,241.423 871.795,241.662 871.382,241.423 870.972,241.662 870.559,241.423 870.147,241.662 
			869.735,241.423 869.325,241.661 868.912,241.423 868.502,241.662 868.089,241.423 867.678,241.662 867.265,241.423 
			866.855,241.661 866.442,241.423 866.032,241.662 865.619,241.423 865.208,241.662 864.795,241.423 864.385,241.662 
			863.972,241.423 863.562,241.662 863.148,241.423 862.738,241.661 862.325,241.423 861.915,241.662 861.502,241.423 
			861.092,241.662 860.679,241.423 860.268,241.662 859.854,241.423 859.445,241.661 859.032,241.423 858.622,241.662 
			858.209,241.423 857.798,241.662 857.385,241.423 856.975,241.662 856.562,241.423 856.152,241.661 855.739,241.423 
			855.328,241.662 854.915,241.423 854.504,241.662 854.092,241.423 853.682,241.661 853.269,241.423 852.858,241.662 
			852.445,241.423 852.035,241.662 851.622,241.423 851.211,241.662 850.798,241.423 850.388,241.662 849.975,241.423 
			849.564,241.662 849.152,241.423 848.741,241.662 848.328,241.423 847.918,241.661 847.505,241.423 847.095,241.662 
			846.682,241.423 846.271,241.662 845.858,241.423 845.448,241.662 845.035,241.423 844.625,241.662 844.212,241.423 
			843.801,241.662 843.388,241.423 842.978,241.662 842.565,241.423 842.155,241.662 841.742,241.423 841.331,241.662 
			840.918,241.423 840.508,241.662 840.095,241.423 839.685,241.662 839.272,241.423 838.861,241.662 838.448,241.423 
			838.038,241.662 837.625,241.423 837.215,241.662 836.802,241.423 836.391,241.662 835.979,241.423 835.568,241.662 
			835.155,241.423 834.745,241.662 834.332,241.423 833.921,241.662 833.508,241.423 833.098,241.662 832.686,241.423 
			832.275,241.662 831.862,241.423 831.451,241.662 831.039,241.423 830.628,241.662 830.215,241.423 829.805,241.662 
			829.392,241.423 828.981,241.662 828.568,241.423 828.158,241.662 827.745,241.423 827.335,241.661 826.922,241.423 
			826.511,241.662 826.099,241.423 825.688,241.662 825.275,241.423 824.865,241.661 824.452,241.423 824.042,241.662 
			823.629,241.423 823.218,241.662 822.805,241.423 822.394,241.662 821.981,241.423 821.571,241.661 821.159,241.423 
			820.749,241.662 820.335,241.423 819.925,241.662 819.512,241.423 819.101,241.662 818.688,241.423 818.278,241.661 
			817.866,241.423 817.455,241.662 817.042,241.423 816.631,241.662 816.218,241.423 815.809,241.661 815.396,241.423 
			814.985,241.662 814.572,241.423 814.161,241.662 813.749,241.423 813.338,241.662 812.924,241.423 812.515,241.661 
			812.102,241.423 811.691,241.662 811.278,241.423 810.868,241.662 810.455,241.423 810.044,241.662 809.631,241.423 
			809.221,241.661 808.809,241.423 808.398,241.662 807.984,241.423 807.574,241.662 807.161,241.423 806.751,241.661 
			806.339,241.423 805.928,241.662 805.516,241.423 805.104,241.662 804.691,241.423 804.281,241.662 803.868,241.423 
			803.458,241.661 803.045,241.423 802.635,241.662 802.222,241.423 801.811,241.662 801.398,241.423 800.988,241.661 
			800.576,241.423 800.165,241.662 799.751,241.423 799.341,241.662 798.928,241.423 798.518,241.662 798.104,241.423 
			797.695,241.661 797.282,241.423 796.872,241.662 796.458,241.423 796.047,241.662 795.635,241.423 795.225,241.662 
			794.812,241.423 794.401,241.662 793.988,241.423 793.578,241.662 793.165,241.423 506.063,408.27 300.792,289.755 
			383.958,241.425 300.248,193.095 299.837,193.333 299.425,193.096 299.015,193.333 298.601,193.095 298.191,193.333 
			297.778,193.094 297.367,193.333 296.954,193.095 296.544,193.333 296.131,193.095 295.721,193.333 295.308,193.095 
			294.897,193.333 294.484,193.095 294.074,193.333 293.661,193.096 293.251,193.333 292.838,193.095 292.428,193.333 
			292.014,193.094 291.604,193.333 291.191,193.094 290.78,193.333 290.368,193.095 289.957,193.333 289.544,193.095 
			289.134,193.333 288.722,193.095 288.311,193.333 287.898,193.095 287.488,193.333 287.074,193.095 286.664,193.333 
			286.251,193.095 285.841,193.333 285.428,193.095 285.018,193.333 284.605,193.095 284.194,193.333 283.781,193.095 
			283.371,193.333 282.958,193.095 282.547,193.333 282.134,193.095 281.724,193.333 281.311,193.095 280.901,193.333 
			280.488,193.095 280.077,193.333 279.665,193.095 279.254,193.333 278.841,193.095 278.431,193.333 278.018,193.095 
			277.607,193.333 277.194,193.095 276.784,193.333 276.371,193.095 275.961,193.333 275.548,193.095 275.137,193.333 
			274.725,193.095 274.314,193.333 273.901,193.095 273.491,193.333 273.078,193.095 272.667,193.333 272.254,193.095 
			271.844,193.333 271.432,193.095 271.021,193.333 270.608,193.095 270.197,193.333 269.785,193.095 269.374,193.333 
			268.961,193.095 268.551,193.333 268.138,193.095 267.728,193.333 267.314,193.095 266.904,193.333 266.492,193.095 
			266.081,193.333 265.668,193.095 265.257,193.333 264.845,193.095 264.434,193.333 264.021,193.095 263.61,193.333 
			263.197,193.095 262.788,193.333 262.375,193.095 261.964,193.333 261.552,193.095 261.141,193.333 260.728,193.095 
			260.317,193.333 259.904,193.095 259.494,193.333 259.081,193.095 258.67,193.333 258.258,193.095 257.847,193.333 
			257.435,193.095 257.024,193.333 256.611,193.095 256.2,193.333 255.788,193.095 255.377,193.333 254.964,193.095 
			254.554,193.333 254.141,193.095 253.73,193.333 253.317,193.095 252.907,193.333 252.495,193.095 252.084,193.333 
			251.67,193.095 251.261,193.333 250.848,193.095 250.438,193.333 250.024,193.095 249.613,193.333 249.201,193.095 
			248.791,193.333 248.378,193.095 247.967,193.333 247.554,193.095 247.144,193.333 246.73,193.095 246.321,193.333 
			245.908,193.095 245.498,193.333 245.085,193.095 244.674,193.333 244.261,193.095 243.85,193.333 243.438,193.095 
			243.027,193.333 242.614,193.095 242.204,193.333 241.791,193.095 241.381,193.333 240.968,193.095 240.557,193.333 
			240.144,193.095 239.733,193.333 239.321,193.095 238.91,193.333 238.498,193.095 238.087,193.333 237.674,193.095 
			237.264,193.333 236.851,193.095 236.44,193.333 236.028,193.095 235.617,193.333 235.204,193.095 234.793,193.333 
			234.381,193.095 233.97,193.333 233.558,193.095 233.147,193.333 232.734,193.095 232.324,193.333 231.911,193.095 231.5,193.333 
			231.088,193.095 230.677,193.333 230.264,193.095 229.854,193.333 229.441,193.095 229.031,193.333 228.618,193.095 
			228.207,193.333 227.794,193.095 227.384,193.333 226.971,193.095 226.561,193.333 226.148,193.095 225.737,193.333 
			225.324,193.095 224.914,193.333 224.501,193.095 224.091,193.333 223.678,193.095 223.267,193.333 222.854,193.095 
			222.444,193.333 222.031,193.095 221.621,193.333 221.208,193.095 220.797,193.333 220.384,193.095 219.974,193.333 
			219.561,193.095 219.15,193.333 218.737,193.095 218.327,193.333 217.915,193.095 217.504,193.333 217.091,193.095 
			216.681,193.333 216.267,193.095 215.857,193.333 215.444,193.095 215.034,193.333 214.621,193.095 214.211,193.333 
			213.798,193.095 213.387,193.333 212.974,193.095 212.563,193.333 212.151,193.095 211.74,193.333 211.327,193.095 
			210.917,193.333 210.504,193.095 210.094,193.333 209.681,193.095 209.27,193.333 208.857,193.095 42.533,289.752 
			461.067,531.394 461.479,531.155 461.891,531.394 462.302,531.155 462.714,531.394 463.125,531.155 463.538,531.394 
			463.948,531.155 464.361,531.394 464.771,531.155 465.184,531.394 465.595,531.155 466.007,531.394 466.418,531.155 
			466.832,531.394 467.241,531.155 467.654,531.394 468.064,531.155 468.478,531.394 468.888,531.155 469.301,531.394 
			469.711,531.155 470.124,531.394 470.535,531.155 470.948,531.394 471.358,531.155 471.771,531.394 472.181,531.155 
			472.594,531.394 473.004,531.155 473.418,531.394 473.828,531.155 474.241,531.394 474.651,531.155 475.064,531.394 
			475.475,531.155 475.888,531.394 476.298,531.155 476.711,531.394 477.121,531.155 477.534,531.394 477.945,531.155 
			478.358,531.394 478.768,531.155 479.181,531.394 479.591,531.155 480.004,531.394 480.415,531.155 480.828,531.394 
			481.238,531.155 481.651,531.394 482.061,531.155 482.474,531.394 482.885,531.155 483.298,531.394 483.708,531.155 
			484.122,531.394 484.531,531.155 484.944,531.394 485.355,531.155 485.768,531.394 486.178,531.155 486.591,531.394 
			487.001,531.155 487.415,531.394 487.825,531.155 488.237,531.394 488.648,531.155 489.062,531.394 489.472,531.155 
			489.885,531.394 490.295,531.155 490.708,531.394 491.119,531.155 491.531,531.394 491.941,531.155 492.354,531.394 
			492.765,531.155 493.178,531.394 493.589,531.155 494.001,531.394 494.412,531.155 494.825,531.394 495.235,531.155 
			495.648,531.394 496.058,531.155 496.471,531.394 496.881,531.155 497.295,531.394 497.705,531.155 498.118,531.394 
			498.528,531.155 498.941,531.394 499.352,531.155 499.765,531.394 500.175,531.155 500.588,531.394 500.999,531.155 
			501.412,531.394 501.822,531.155 502.235,531.394 502.645,531.155 503.058,531.394 503.468,531.155 503.882,531.394 
			504.292,531.155 504.705,531.394 505.115,531.155 505.528,531.394 505.938,531.155 506.352,531.394 506.762,531.155 
			507.175,531.394 507.585,531.155 507.998,531.394 508.408,531.155 508.821,531.394 509.232,531.155 509.645,531.394 
			510.055,531.155 510.468,531.394 510.878,531.155 511.292,531.394 511.702,531.155 512.115,531.394 512.525,531.155 
			512.938,531.394 513.349,531.155 513.761,531.394 514.172,531.155 514.584,531.394 514.995,531.155 515.408,531.394 
			515.818,531.155 516.231,531.394 516.642,531.155 517.055,531.394 517.465,531.155 517.877,531.394 518.289,531.155 
			518.701,531.394 519.112,531.155 519.525,531.394 519.935,531.155 520.348,531.394 520.758,531.155 521.171,531.394 
			521.582,531.155 521.995,531.394 522.405,531.155 522.817,531.394 523.229,531.155 523.641,531.394 524.052,531.155 
			524.465,531.394 524.875,531.155 525.288,531.394 525.698,531.155 526.111,531.394 526.522,531.155 526.935,531.394 
			527.346,531.155 527.758,531.394 528.169,531.155 528.582,531.394 528.992,531.155 529.405,531.394 529.815,531.155 
			530.229,531.394 530.639,531.155 531.051,531.394 531.461,531.155 531.874,531.394 532.285,531.155 532.698,531.394 
			533.108,531.155 533.521,531.394 533.932,531.155 534.345,531.394 534.755,531.155 535.168,531.394 535.579,531.155 
			535.992,531.394 536.402,531.155 536.814,531.394 537.226,531.155 537.638,531.394 538.048,531.155 538.462,531.394 
			538.872,531.155 539.284,531.394 539.695,531.155 540.108,531.394 540.519,531.155 540.932,531.394 541.342,531.155 
			541.755,531.394 542.165,531.155 542.578,531.394 542.988,531.155 543.401,531.394 543.812,531.155 544.225,531.394 
			544.635,531.155 545.048,531.394 		"/>
		<polygon points="1799.677,1111.079 1800.089,1111.318 1800.5,1111.079 1800.913,1111.318 1801.323,1111.079 1801.735,1111.318 
			1802.146,1111.079 1802.56,1111.318 1802.97,1111.079 1803.383,1111.318 1803.793,1111.079 1804.206,1111.318 1804.616,1111.079 
			1805.029,1111.318 1805.44,1111.079 1805.853,1111.318 1806.263,1111.079 1806.676,1111.318 1807.087,1111.079 1807.499,1111.318 
			1807.91,1111.079 1808.323,1111.318 1808.732,1111.079 1809.146,1111.318 1809.557,1111.079 1809.969,1111.318 1810.38,1111.079 
			1810.793,1111.318 1811.203,1111.079 1811.615,1111.318 1812.026,1111.079 1812.439,1111.318 1812.85,1111.079 1813.263,1111.318 
			1813.673,1111.079 1814.085,1111.318 1814.496,1111.079 1814.909,1111.318 1815.32,1111.079 1815.733,1111.318 1816.143,1111.081 
			1816.557,1111.318 1816.966,1111.079 1817.379,1111.318 1817.79,1111.079 1818.203,1111.318 1818.612,1111.081 1819.025,1111.318 
			1819.437,1111.079 1819.849,1111.318 1820.26,1111.079 1820.674,1111.318 1821.083,1111.081 1821.496,1111.318 1821.906,1111.079 
			1822.319,1111.318 1822.729,1111.079 1823.144,1111.318 1823.553,1111.081 1823.965,1111.318 1824.376,1111.079 
			1824.789,1111.318 1825.2,1111.079 1825.612,1111.318 1826.023,1111.079 1826.437,1111.318 1826.846,1111.081 1827.259,1111.318 
			1827.67,1111.079 1828.082,1111.318 1828.492,1111.079 1828.907,1111.318 1829.315,1111.081 1829.729,1111.318 1830.14,1111.079 
			1830.552,1111.318 1830.963,1111.079 1831.377,1111.318 1831.787,1111.079 1832.199,1111.318 1832.609,1111.081 
			1833.022,1111.318 1833.433,1111.079 1833.847,1111.318 1834.257,1111.079 1834.669,1111.318 1835.079,1111.081 
			1835.492,1111.318 1835.903,1111.079 1836.316,1111.318 1836.727,1111.079 1837.14,1111.318 1837.55,1111.081 1837.962,1111.318 
			1838.372,1111.079 1838.786,1111.318 1839.196,1111.079 1839.609,1111.318 1840.021,1111.079 1840.433,1111.318 
			1840.844,1111.079 1841.257,1111.318 1841.667,1111.079 1842.079,1111.318 1842.489,1111.081 1842.902,1111.318 
			1843.312,1111.079 1843.727,1111.318 1844.137,1111.079 1844.55,1111.318 1844.96,1111.079 1845.373,1111.318 1845.784,1111.079 
			1846.196,1111.318 1846.606,1111.079 1847.02,1111.318 1847.43,1111.079 1847.843,1111.318 1848.254,1111.079 1848.666,1111.318 
			1849.076,1111.079 1849.49,1111.318 1849.9,1111.079 1850.313,1111.318 1850.724,1111.079 1851.137,1111.318 1851.546,1111.079 
			1851.959,1111.318 1852.37,1111.079 1852.782,1111.318 1853.193,1111.079 1853.606,1111.318 1854.018,1111.079 1854.43,1111.318 
			1854.84,1111.079 1855.253,1111.318 1855.663,1111.079 1856.076,1111.318 1856.486,1111.079 1856.899,1111.318 1857.31,1111.079 
			1857.723,1111.318 1858.134,1111.079 1858.546,1111.318 1858.957,1111.079 1859.371,1111.318 1859.78,1111.081 1860.192,1111.318 
			1860.604,1111.079 1861.017,1111.318 1861.426,1111.079 1861.841,1111.318 1862.25,1111.081 1862.662,1111.318 1863.073,1111.079 
			1863.486,1111.318 1863.897,1111.079 1864.311,1111.318 1864.721,1111.079 1865.134,1111.318 1865.543,1111.081 
			1865.956,1111.318 1866.366,1111.079 1866.78,1111.318 1867.19,1111.079 1867.604,1111.318 1868.014,1111.081 1868.426,1111.318 
			1868.837,1111.079 1869.251,1111.318 1869.66,1111.079 1870.073,1111.318 1870.484,1111.079 1870.896,1111.318 1871.306,1111.081 
			1871.719,1111.318 1872.13,1111.079 1872.544,1111.318 1872.954,1111.079 1873.367,1111.318 1873.776,1111.081 1874.189,1111.318 
			1874.6,1111.079 1875.013,1111.318 1875.424,1111.079 1875.837,1111.318 1876.246,1111.081 1876.658,1111.318 1877.069,1111.079 
			1877.484,1111.318 1877.894,1111.079 1878.307,1111.318 1878.718,1111.079 1879.13,1111.318 1879.54,1111.079 1879.953,1111.318 
			1880.364,1111.079 1880.776,1111.318 1881.188,1111.079 1881.601,1111.318 1882.009,1111.081 1882.422,1111.318 
			1882.833,1111.079 1883.247,1111.318 1883.657,1111.079 1884.07,1111.318 1884.48,1111.079 1884.893,1111.318 1885.304,1111.079 
			1885.717,1111.318 1886.128,1111.079 1886.54,1111.318 1886.951,1111.079 1887.364,1111.318 1887.773,1111.079 1888.187,1111.318 
			1888.599,1111.079 1889.01,1111.317 1889.419,1111.079 1889.833,1111.318 1890.243,1111.079 1890.656,1111.318 1973.814,1062.992 
			1555.288,821.354 1554.876,821.593 1554.464,821.355 1554.053,821.594 1553.64,821.354 1553.23,821.592 1552.817,821.354 
			1552.407,821.593 1551.994,821.354 1551.583,821.593 1551.171,821.354 1550.761,821.593 1550.348,821.354 1549.937,821.593 
			1549.524,821.354 1549.113,821.593 1548.7,821.354 1548.29,821.593 1547.878,821.354 1547.467,821.593 1547.054,821.354 
			1546.644,821.593 1546.23,821.354 1545.82,821.593 1545.406,821.354 1544.997,821.592 1544.584,821.354 1544.173,821.593 
			1543.761,821.354 1543.351,821.593 1542.938,821.354 1542.527,821.593 1542.114,821.354 1541.703,821.593 1541.291,821.354 
			1540.881,821.593 1540.468,821.354 1540.057,821.593 1539.645,821.354 1539.233,821.593 1538.82,821.354 1538.411,821.593 
			1537.997,821.354 1537.587,821.593 1537.174,821.354 1536.764,821.592 1536.351,821.354 1535.94,821.593 1535.528,821.354 
			1535.117,821.593 1534.704,821.354 1534.294,821.593 1533.88,821.354 1533.469,821.593 1533.057,821.354 1532.647,821.592 
			1532.234,821.354 1531.823,821.593 1531.411,821.354 1531.001,821.593 1530.588,821.354 1530.177,821.593 1529.764,821.354 
			1529.353,821.593 1528.94,821.354 1528.529,821.593 1528.116,821.354 1527.707,821.592 1527.295,821.354 1526.884,821.593 
			1526.471,821.354 1526.062,821.593 1525.646,821.354 1525.236,821.593 1524.823,821.354 1524.413,821.593 1524,821.354 
			1523.589,821.593 1523.177,821.354 1522.768,821.592 1522.354,821.354 1521.944,821.593 1521.53,821.354 1521.119,821.593 
			1520.706,821.354 1520.297,821.593 1519.884,821.354 1519.473,821.593 1519.061,821.354 1518.649,821.593 1518.236,821.354 
			1517.827,821.593 1517.414,821.354 1517.003,821.593 1516.591,821.354 1516.18,821.593 1515.767,821.354 1515.356,821.593 
			1514.944,821.354 1514.533,821.593 1514.12,821.354 1513.71,821.593 1513.297,821.354 1512.887,821.593 1512.474,821.354 
			1512.063,821.593 1511.65,821.354 1511.239,821.593 1510.827,821.354 1510.417,821.593 1510.003,821.354 1509.593,821.593 
			1509.181,821.354 1508.77,821.593 1508.356,821.354 1507.947,821.593 1507.534,821.354 1507.123,821.593 1506.711,821.354 
			1506.3,821.593 1505.887,821.354 1505.477,821.593 1505.063,821.354 1504.653,821.593 1504.24,821.354 1503.83,821.593 
			1503.417,821.354 1503.007,821.593 1502.595,821.354 1502.184,821.593 1501.771,821.354 1501.359,821.593 1500.947,821.354 
			1500.536,821.593 1500.122,821.354 1499.714,821.592 1499.301,821.354 1498.89,821.593 1498.478,821.354 1498.067,821.593 
			1497.654,821.354 1497.243,821.593 1496.83,821.354 1496.419,821.593 1496.006,821.354 1495.597,821.592 1495.184,821.354 
			1494.773,821.593 1494.36,821.354 1493.95,821.593 1493.537,821.354 1493.127,821.593 1492.713,821.354 1492.303,821.593 
			1491.89,821.354 1491.479,821.593 1491.066,821.354 1490.656,821.592 1490.243,821.354 1489.834,821.593 1489.421,821.354 
			1489.01,821.593 1488.597,821.354 1488.186,821.593 1487.772,821.354 1487.362,821.593 1486.95,821.354 1486.539,821.593 
			1486.126,821.354 1485.717,821.592 1485.304,821.354 1484.894,821.593 1484.481,821.354 1484.07,821.593 1483.656,821.354 
			1483.245,821.593 1482.833,821.354 1482.423,821.593 1482.009,821.354 1481.6,821.593 1481.187,821.354 1480.775,821.593 
			1480.363,821.354 1479.953,821.593 1479.54,821.354 1479.129,821.593 1478.717,821.354 1478.306,821.593 1477.893,821.354 
			1477.483,821.593 1477.069,821.354 1476.659,821.593 1476.247,821.354 1475.836,821.593 1475.423,821.354 1475.013,821.593 
			1474.601,821.354 1474.189,821.593 1473.776,821.354 1473.366,821.593 1472.953,821.354 1472.542,821.593 1472.13,821.354 
			1471.72,821.593 1471.307,821.354 1470.896,821.593 1470.483,821.354 1470.073,821.593 1469.66,821.354 1469.249,821.593 
			1468.837,821.354 1468.426,821.593 1468.013,821.354 1467.603,821.593 1467.189,821.354 1466.779,821.593 1466.367,821.354 
			1465.956,821.593 1465.543,821.354 1465.134,821.593 1464.721,821.354 1464.31,821.593 1463.897,821.354 1380.739,869.681 
			1799.266,1111.318 		"/>
	</g>
	<g>
		<polygon fill="#006CBE" stroke="#001F56" stroke-width="3" stroke-linejoin="round" stroke-miterlimit="10" points="
			383.958,115.763 383.606,239.616 300.441,287.947 300.792,164.094 		"/>
	</g>
	<g>
		<polygon fill="#2240A6" stroke="#001F56" stroke-width="3" stroke-linejoin="round" stroke-miterlimit="10" points="
			551.642,405.732 551.291,529.586 132.756,287.944 133.107,164.09 		"/>
	</g>
	<g>
		<polygon fill="#006CBE" stroke="#001F56" stroke-width="3" stroke-linejoin="round" stroke-miterlimit="10" points="
			968.266,164.091 967.915,287.944 552.107,529.585 552.458,405.732 		"/>
	</g>
	<g>
		<polygon fill="#BFDBFE" stroke="#001F56" stroke-width="3" stroke-linejoin="round" stroke-miterlimit="10" points="
			968.266,164.091 552.458,405.732 133.923,164.09 300.248,67.433 383.958,115.763 300.792,164.094 551.907,309.076 
			884.556,115.761 		"/>
	</g>
	<g>
		<polygon fill="#2240A6" stroke="#001F56" stroke-width="3" stroke-linejoin="round" stroke-miterlimit="10" points="
			1219.918,405.729 1219.566,529.582 1052.154,432.927 1052.506,309.073 		"/>
	</g>
	<g>
		<polygon fill="#006CBE" stroke="#001F56" stroke-width="3" stroke-linejoin="round" stroke-miterlimit="10" points="
			1052.506,309.073 1052.154,432.927 719.513,626.237 719.864,502.383 		"/>
	</g>
	<g>
		<polygon fill="#2240A6" stroke="#001F56" stroke-width="3" stroke-linejoin="round" stroke-miterlimit="10" points="
			719.864,502.383 719.513,626.237 635.81,577.911 636.161,454.058 		"/>
	</g>
	<g>
		<polygon fill="url(#New_Pattern_2)" stroke="#001F56" stroke-width="3" stroke-linejoin="round" stroke-miterlimit="10" points="
			1219.918,405.729 1219.566,529.582 1052.154,432.927 1052.506,309.073 		"/>
	</g>
	<g>
		<polygon fill="#2240A6" stroke="#001F56" stroke-width="3" stroke-linejoin="round" stroke-miterlimit="10" points="
			1471.033,550.71 1470.683,674.563 1303.277,577.913 1303.627,454.059 		"/>
	</g>
	<g>
		<polygon fill="url(#New_Pattern_2)" stroke="#001F56" stroke-width="3" stroke-linejoin="round" stroke-miterlimit="10" points="
			1471.033,550.71 1470.683,674.563 1303.277,577.913 1303.627,454.059 		"/>
	</g>
	<g>
		<polygon fill="#006CBE" stroke="#001F56" stroke-width="3" stroke-linejoin="round" stroke-miterlimit="10" points="
			1303.627,454.059 1303.277,577.913 970.635,771.222 970.986,647.369 		"/>
	</g>
	<g>
		<polygon fill="#2240A6" stroke="#001F56" stroke-width="3" stroke-linejoin="round" stroke-miterlimit="10" points="
			970.986,647.369 970.635,771.222 886.925,722.892 887.276,599.04 		"/>
	</g>
	<g>
		<polygon fill="#006CBE" stroke="#001F56" stroke-width="3" stroke-linejoin="round" stroke-miterlimit="10" points="
			1637.909,550.709 1637.558,674.563 1221.75,916.204 1222.102,792.351 		"/>
	</g>
	<g>
		<polygon fill="#BFDBFE" stroke="#001F56" stroke-width="3" stroke-linejoin="round" stroke-miterlimit="10" points="
			1637.909,550.709 1222.102,792.351 1138.392,744.021 1471.033,550.71 1303.627,454.059 970.986,647.369 887.276,599.04 
			1219.918,405.729 1052.506,309.073 719.864,502.383 636.161,454.058 1051.968,212.417 		"/>
	</g>
	<g>
		<polygon fill="#2240A6" stroke="#001F56" stroke-width="3" stroke-linejoin="round" stroke-miterlimit="10" points="
			1222.102,792.351 1221.75,916.204 1138.04,867.874 1138.392,744.021 		"/>
	</g>
	<g>
		<polygon fill="#006CBE" stroke="#001F56" stroke-width="3" stroke-linejoin="round" stroke-miterlimit="10" points="
			1973.814,937.33 1973.464,1061.183 1890.307,1109.511 1890.656,985.657 		"/>
	</g>
	<g>
		<polygon fill="#2240A6" stroke="#001F56" stroke-width="3" stroke-linejoin="round" stroke-miterlimit="10" points="
			1890.656,985.657 1890.307,1109.511 1471.777,867.872 1472.129,744.02 		"/>
	</g>
	<g>
		<polygon fill="#BFDBFE" stroke="#001F56" stroke-width="3" stroke-linejoin="round" stroke-miterlimit="10" points="
			1973.814,937.33 1890.656,985.657 1472.129,744.02 1555.288,695.692 		"/>
	</g>
	<g>
		<polygon fill="#006CBE" stroke="#001F56" stroke-width="3" stroke-linejoin="round" stroke-miterlimit="10" points="
			2224.386,985.659 2224.034,1109.512 2140.876,1157.838 2141.228,1033.984 		"/>
	</g>
	<g>
		<polygon fill="#006CBE" stroke="#001F56" stroke-width="3" stroke-linejoin="round" stroke-miterlimit="10" points="
			2058.069,1082.312 2057.717,1206.165 1974.553,1254.495 1974.903,1130.642 		"/>
	</g>
	<g>
		<polygon fill="#006CBE" stroke="#001F56" stroke-width="3" stroke-linejoin="round" stroke-miterlimit="10" points="
			2642.377,1130.638 2642.026,1254.493 2558.859,1302.823 2559.21,1178.97 		"/>
	</g>
	<g>
		<polygon fill="#2240A6" stroke="#001F56" stroke-width="3" stroke-linejoin="round" stroke-miterlimit="10" points="
			2559.21,1178.97 2558.859,1302.823 2224.034,1109.512 2224.386,985.659 		"/>
	</g>
	<g>
		<polygon fill="#2240A6" stroke="#001F56" stroke-width="3" stroke-linejoin="round" stroke-miterlimit="10" points="
			2309.185,1227.292 2308.833,1351.146 2057.717,1206.165 2058.069,1082.312 		"/>
	</g>
	<g>
		<polygon fill="#2240A6" stroke="#001F56" stroke-width="3" stroke-linejoin="round" stroke-miterlimit="10" points="
			2226.571,1372.279 2226.219,1496.133 1807.69,1254.496 1808.043,1130.642 		"/>
	</g>
	<g>
		<polygon fill="url(#New_Pattern_2)" stroke="#001F56" stroke-width="3" stroke-linejoin="round" stroke-miterlimit="10" points="
			551.642,405.732 551.291,529.586 132.756,287.944 133.107,164.09 		"/>
	</g>
	<g>
		<polygon fill="url(#New_Pattern_2)" stroke="#001F56" stroke-width="3" stroke-linejoin="round" stroke-miterlimit="10" points="
			719.864,502.383 719.513,626.237 635.81,577.911 636.161,454.058 		"/>
	</g>
	<g>
		<polygon fill="url(#New_Pattern_2)" stroke="#001F56" stroke-width="3" stroke-linejoin="round" stroke-miterlimit="10" points="
			970.986,647.369 970.635,771.222 886.925,722.892 887.276,599.04 		"/>
	</g>
	<g>
		<polygon fill="url(#New_Pattern_2)" stroke="#001F56" stroke-width="3" stroke-linejoin="round" stroke-miterlimit="10" points="
			1222.102,792.351 1221.75,916.204 1138.04,867.874 1138.392,744.021 		"/>
	</g>
	<g>
		<polygon fill="url(#New_Pattern_2)" stroke="#001F56" stroke-width="3" stroke-linejoin="round" stroke-miterlimit="10" points="
			1890.656,985.657 1890.307,1109.511 1471.777,867.872 1472.129,744.02 		"/>
	</g>
	<g>
		<polygon fill="url(#New_Pattern_2)" stroke="#001F56" stroke-width="3" stroke-linejoin="round" stroke-miterlimit="10" points="
			2559.21,1178.97 2558.859,1302.823 2224.034,1109.512 2224.386,985.659 		"/>
	</g>
	<g>
		<polygon fill="url(#New_Pattern_2)" stroke="#001F56" stroke-width="3" stroke-linejoin="round" stroke-miterlimit="10" points="
			2309.185,1227.292 2308.833,1351.146 2057.717,1206.165 2058.069,1082.312 		"/>
	</g>
	<g>
		<polygon fill="url(#New_Pattern_2)" stroke="#001F56" stroke-width="3" stroke-linejoin="round" stroke-miterlimit="10" points="
			2226.571,1372.279 2226.219,1496.133 1807.69,1254.496 1808.043,1130.642 		"/>
	</g>
	<g>
		<polygon fill="#006CBE" stroke="#001F56" stroke-width="3" stroke-linejoin="round" stroke-miterlimit="10" points="
			2476.052,1227.296 2475.7,1351.149 2226.219,1496.133 2226.571,1372.279 		"/>
	</g>
	<g>
		<path fill="#BFDBFE" stroke="#001F56" stroke-width="3" stroke-linejoin="round" stroke-miterlimit="10" d="M2559.21,1178.97
			l-334.824-193.312l-83.158,48.326l334.824,193.312l-249.48,144.983l-418.528-241.638l415.808-241.64l418.526,241.636
			L2559.21,1178.97z M2309.185,1227.292l-251.115-144.98l-83.166,48.33l251.116,144.981L2309.185,1227.292"/>
	</g>
</g>
</svg>
